<svg width="26" height="25" viewBox="0 0 26 25" fill="none" xmlns="http://www.w3.org/2000/svg">
<rect width="26" height="25" fill="#F2F2F3"/>
<g clip-path="url(#clip0_2_4)">
<rect x="-419" y="-398" width="1067.22" height="720.632" rx="40" transform="rotate(-0.301821 -419 -398)" fill="white"/>
</g>
<rect x="-18.5174" y="-61.0002" width="63" height="107" rx="4.5" transform="rotate(-0.301821 -18.5174 -61.0002)" stroke="#7C7C7C" stroke-dasharray="10 5"/>
<path fill-rule="evenodd" clip-rule="evenodd" d="M15.3842 15.7247C15.4747 17.5563 14.0043 19.1133 12.1002 19.2012C11.9599 19.2078 5.12093 19.2301 5.12093 19.2301C3.22637 19.3839 1.56041 18.0307 1.4013 16.2064C1.38932 16.0704 1.35373 8.73238 1.35373 8.73238C1.26011 6.89881 2.72845 5.33789 4.63359 5.24704C4.77588 5.23939 11.6057 5.21622 11.6057 5.21622C13.5095 5.06428 15.1806 6.42733 15.3377 8.26056C15.3486 8.39257 15.3842 15.7247 15.3842 15.7247Z" stroke="black" stroke-width="1.5" stroke-linecap="round" stroke-linejoin="round"/>
<path d="M15.358 10.1663L18.6367 7.45401C19.4492 6.78172 20.6763 7.35726 20.6808 8.41026L20.7075 15.7592C20.7121 16.8122 19.4901 17.3957 18.6726 16.732L15.3785 14.0543" stroke="black" stroke-width="1.5" stroke-linecap="round" stroke-linejoin="round"/>
<defs>
<clipPath id="clip0_2_4">
<rect x="-419" y="-398" width="1067.22" height="720.632" rx="40" transform="rotate(-0.301821 -419 -398)" fill="white"/>
</clipPath>
</defs>
</svg>
