<svg width="22" height="22" viewBox="0 0 22 22" fill="none" xmlns="http://www.w3.org/2000/svg">
<path fill-rule="evenodd" clip-rule="evenodd" d="M10.8945 0.109864H11.0073C12.8451 0.109848 14.3007 0.109835 15.4399 0.262998C16.6124 0.420627 17.5613 0.752744 18.3097 1.50111C19.058 2.24947 19.3902 3.19842 19.5478 4.37084C19.6505 5.13491 19.6843 6.04131 19.6955 7.10986H19.9509C20.9174 7.10986 21.7009 7.89337 21.7009 8.85986V9.85986C21.7009 10.4107 21.4416 10.9294 21.0009 11.2599L19.6985 12.2367C19.6912 13.4692 19.6623 14.4974 19.5478 15.3489C19.3902 16.5213 19.058 17.4703 18.3097 18.2186C18.1198 18.4085 17.917 18.5716 17.7009 18.7118V19.8599C17.7009 20.8264 16.9174 21.6099 15.9509 21.6099H14.4509C13.4844 21.6099 12.7009 20.8264 12.7009 19.8599V19.6044C12.1763 19.6099 11.6125 19.6099 11.0073 19.6099H10.8945C10.2893 19.6099 9.72558 19.6099 9.20093 19.6044V19.8599C9.20093 20.8264 8.41743 21.6099 7.45093 21.6099H5.95093C4.98443 21.6099 4.20093 20.8264 4.20093 19.8599V18.7118C3.98485 18.5716 3.78205 18.4085 3.59217 18.2186C2.84381 17.4703 2.51169 16.5213 2.35406 15.3489C2.23958 14.4974 2.21068 13.4692 2.20338 12.2367L0.900928 11.2599C0.460267 10.9294 0.200928 10.4107 0.200928 9.85986V8.85986C0.200928 7.89337 0.984429 7.10986 1.95093 7.10986H2.20638C2.21751 6.04131 2.25134 5.13491 2.35406 4.37084C2.51169 3.19842 2.84381 2.24947 3.59217 1.50111C4.34053 0.752744 5.28948 0.420627 6.4619 0.262998C7.60112 0.109835 9.05675 0.109848 10.8945 0.109864ZM2.20093 8.60986H1.95093C1.81286 8.60986 1.70093 8.72179 1.70093 8.85986V9.85986C1.70093 9.93855 1.73798 10.0127 1.80093 10.0599L2.20093 10.3599L2.20093 8.80345C2.20093 8.73844 2.20093 8.67392 2.20093 8.60986ZM3.70665 12.6099C3.71755 13.6435 3.74913 14.4681 3.84069 15.149C3.97595 16.1551 4.22962 16.7347 4.65283 17.158C5.07604 17.5812 5.65569 17.8348 6.66178 17.9701C7.68944 18.1083 9.04411 18.1099 10.9509 18.1099C12.8577 18.1099 14.2124 18.1083 15.2401 17.9701C16.2462 17.8348 16.8258 17.5812 17.249 17.158C17.6722 16.7347 17.9259 16.1551 18.0612 15.149C18.1527 14.4681 18.1843 13.6435 18.1952 12.6099H3.70665ZM18.2009 11.1099H3.70095C3.70093 11.0276 3.70093 10.9443 3.70093 10.8599V8.85986C3.70093 6.97716 3.70248 5.63273 3.83551 4.60986H18.0663C18.1994 5.63273 18.2009 6.97716 18.2009 8.85986V10.8599C18.2009 10.9443 18.2009 11.0276 18.2009 11.1099ZM19.7009 10.3599L20.1009 10.0599C20.1639 10.0127 20.2009 9.93855 20.2009 9.85986V8.85986C20.2009 8.72179 20.089 8.60986 19.9509 8.60986H19.7009C19.7009 8.67392 19.7009 8.73845 19.7009 8.80345V10.3599ZM17.652 3.10986C17.5392 2.89659 17.4057 2.71845 17.249 2.56177C16.8258 2.13856 16.2462 1.88489 15.2401 1.74962C14.2124 1.61146 12.8577 1.60986 10.9509 1.60986C9.04411 1.60986 7.68944 1.61146 6.66178 1.74962C5.65569 1.88489 5.07604 2.13856 4.65283 2.56177C4.49614 2.71845 4.36269 2.89659 4.24989 3.10986H17.652ZM5.70093 19.3203V19.8599C5.70093 19.9979 5.81286 20.1099 5.95093 20.1099H7.45093C7.589 20.1099 7.70093 19.9979 7.70093 19.8599V19.5641C7.25159 19.5414 6.83938 19.5075 6.4619 19.4567C6.19692 19.4211 5.94335 19.3766 5.70093 19.3203ZM14.2009 19.5641V19.8599C14.2009 19.9979 14.3129 20.1099 14.4509 20.1099H15.9509C16.089 20.1099 16.2009 19.9979 16.2009 19.8599V19.3203C15.9585 19.3766 15.7049 19.4211 15.44 19.4567C15.0625 19.5075 14.6503 19.5414 14.2009 19.5641ZM5.20093 14.8599C5.20093 14.4457 5.53671 14.1099 5.95093 14.1099H7.45093C7.86514 14.1099 8.20093 14.4457 8.20093 14.8599C8.20093 15.2741 7.86514 15.6099 7.45093 15.6099H5.95093C5.53671 15.6099 5.20093 15.2741 5.20093 14.8599ZM13.7009 14.8599C13.7009 14.4457 14.0367 14.1099 14.4509 14.1099H15.9509C16.3651 14.1099 16.7009 14.4457 16.7009 14.8599C16.7009 15.2741 16.3651 15.6099 15.9509 15.6099H14.4509C14.0367 15.6099 13.7009 15.2741 13.7009 14.8599Z" fill="#1C274C"/>
</svg>
