<svg width="22" height="16" viewBox="0 0 22 16" fill="none" xmlns="http://www.w3.org/2000/svg">
<path fill-rule="evenodd" clip-rule="evenodd" d="M15.3842 11.7247C15.4747 13.5563 14.0043 15.1133 12.1002 15.2012C11.9599 15.2078 5.12093 15.2301 5.12093 15.2301C3.22637 15.3839 1.56041 14.0307 1.4013 12.2064C1.38932 12.0704 1.35373 4.73238 1.35373 4.73238C1.26011 2.89881 2.72845 1.33789 4.63359 1.24704C4.77588 1.23939 11.6057 1.21622 11.6057 1.21622C13.5095 1.06428 15.1806 2.42733 15.3377 4.26056C15.3486 4.39257 15.3842 11.7247 15.3842 11.7247Z" stroke="black" stroke-width="1.5" stroke-linecap="round" stroke-linejoin="round"/>
<path d="M15.358 6.16632L18.6367 3.45401C19.4492 2.78172 20.6763 3.35726 20.6808 4.41026L20.7075 11.7592C20.7121 12.8122 19.4901 13.3957 18.6726 12.732L15.3785 10.0543" stroke="black" stroke-width="1.5" stroke-linecap="round" stroke-linejoin="round"/>
</svg>
