<svg width="25" height="25" viewBox="0 0 25 25" fill="none" xmlns="http://www.w3.org/2000/svg">
<rect width="25" height="25" fill="#F2F2F3"/>
<g clip-path="url(#clip0_2_4)">
<rect x="-882" y="-518" width="1067.22" height="720.632" rx="40" transform="rotate(-0.301821 -882 -518)" fill="white"/>
<rect width="350.654" height="428.023" transform="translate(-227.937 -349.09) rotate(-0.301821)" fill="white"/>
<rect x="-18.7963" y="-61.6626" width="61" height="106" rx="4.5" stroke="#7C7C7C" stroke-dasharray="10 5"/>
<path fill-rule="evenodd" clip-rule="evenodd" d="M6.6764 2.67188C5.77793 2.67185 5.02869 2.67182 4.43392 2.75179C3.80612 2.83619 3.23932 3.02186 2.78385 3.47733C2.32838 3.9328 2.14271 4.4996 2.05831 5.1274C1.97834 5.72217 1.97837 6.47138 1.97839 7.36985V7.47388C1.97837 8.37234 1.97834 9.12158 2.05831 9.71636C2.14271 10.3442 2.32838 10.911 2.78385 11.3664C3.23932 11.8219 3.80612 12.0076 4.43392 12.092C5.02869 12.1719 5.7779 12.1719 6.67637 12.1719H6.78039C7.67886 12.1719 8.4281 12.1719 9.02288 12.092C9.65067 12.0076 10.2175 11.8219 10.6729 11.3664C11.1284 10.911 11.3141 10.3442 11.3985 9.71636C11.4785 9.12158 11.4784 8.37237 11.4784 7.4739V7.36988C11.4784 6.47142 11.4785 5.72217 11.3985 5.1274C11.3141 4.4996 11.1284 3.9328 10.6729 3.47733C10.2175 3.02186 9.65067 2.83619 9.02288 2.75179C8.4281 2.67182 7.67889 2.67185 6.78042 2.67188H6.6764ZM3.84451 4.53799C3.97483 4.40768 4.17233 4.30046 4.63379 4.23841C5.11683 4.17347 5.76439 4.17188 6.7284 4.17188C7.69241 4.17188 8.33997 4.17347 8.823 4.23841C9.28447 4.30046 9.48196 4.40768 9.61228 4.53799C9.7426 4.66831 9.84982 4.86581 9.91186 5.32727C9.9768 5.81031 9.9784 6.45787 9.9784 7.42188C9.9784 8.38589 9.9768 9.03345 9.91186 9.51649C9.84982 9.97795 9.7426 10.1754 9.61228 10.3058C9.48196 10.4361 9.28447 10.5433 8.823 10.6053C8.33997 10.6703 7.69241 10.6719 6.7284 10.6719C5.76439 10.6719 5.11683 10.6703 4.63379 10.6053C4.17233 10.5433 3.97483 10.4361 3.84451 10.3058C3.7142 10.1754 3.60697 9.97795 3.54493 9.51649C3.47999 9.03345 3.4784 8.38589 3.4784 7.42188C3.4784 6.45787 3.47999 5.81031 3.54493 5.32727C3.60697 4.86581 3.7142 4.66831 3.84451 4.53799Z" fill="#1C274C"/>
<path fill-rule="evenodd" clip-rule="evenodd" d="M17.6764 13.6719C16.7779 13.6718 16.0287 13.6718 15.4339 13.7518C14.8061 13.8362 14.2393 14.0219 13.7839 14.4773C13.3284 14.9328 13.1427 15.4996 13.0583 16.1274C12.9783 16.7222 12.9784 17.4714 12.9784 18.3699V18.4739C12.9784 19.3724 12.9783 20.1216 13.0583 20.7164C13.1427 21.3442 13.3284 21.911 13.7839 22.3664C14.2393 22.8219 14.8061 23.0076 15.4339 23.092C16.0287 23.1719 16.7779 23.1719 17.6763 23.1719H17.7804C18.6788 23.1719 19.4281 23.1719 20.0229 23.092C20.6507 23.0076 21.2175 22.8219 21.6729 22.3664C22.1284 21.911 22.3141 21.3442 22.3985 20.7164C22.4785 20.1216 22.4784 19.3724 22.4784 18.474V18.3699C22.4784 17.4714 22.4785 16.7222 22.3985 16.1274C22.3141 15.4996 22.1284 14.9328 21.6729 14.4773C21.2175 14.0219 20.6507 13.8362 20.0229 13.7518C19.4281 13.6718 18.6789 13.6718 17.7804 13.6719H17.6764ZM14.8445 15.538C14.9748 15.4077 15.1723 15.3005 15.6338 15.2384C16.1168 15.1735 16.7644 15.1719 17.7284 15.1719C18.6924 15.1719 19.34 15.1735 19.823 15.2384C20.2845 15.3005 20.482 15.4077 20.6123 15.538C20.7426 15.6683 20.8498 15.8658 20.9119 16.3273C20.9768 16.8103 20.9784 17.4579 20.9784 18.4219C20.9784 19.3859 20.9768 20.0334 20.9119 20.5165C20.8498 20.9779 20.7426 21.1754 20.6123 21.3058C20.482 21.4361 20.2845 21.5433 19.823 21.6053C19.34 21.6703 18.6924 21.6719 17.7284 21.6719C16.7644 21.6719 16.1168 21.6703 15.6338 21.6053C15.1723 21.5433 14.9748 21.4361 14.8445 21.3058C14.7142 21.1754 14.607 20.9779 14.5449 20.5165C14.48 20.0334 14.4784 19.3859 14.4784 18.4219C14.4784 17.4579 14.48 16.8103 14.5449 16.3273C14.607 15.8658 14.7142 15.6683 14.8445 15.538Z" fill="#1C274C"/>
<path fill-rule="evenodd" clip-rule="evenodd" d="M6.6764 13.6719H6.7804C7.67888 13.6718 8.42809 13.6718 9.02288 13.7518C9.65067 13.8362 10.2175 14.0219 10.6729 14.4773C11.1284 14.9328 11.3141 15.4996 11.3985 16.1274C11.4785 16.7222 11.4784 17.4714 11.4784 18.3699V18.4739C11.4784 19.3723 11.4785 20.1216 11.3985 20.7164C11.3141 21.3442 11.1284 21.911 10.6729 22.3664C10.2175 22.8219 9.65067 23.0076 9.02288 23.092C8.42811 23.1719 7.67891 23.1719 6.78045 23.1719H6.6764C5.77795 23.1719 5.02869 23.1719 4.43392 23.092C3.80612 23.0076 3.23932 22.8219 2.78385 22.3664C2.32838 21.911 2.14271 21.3442 2.05831 20.7164C1.97834 20.1216 1.97837 19.3724 1.97839 18.4739V18.3699C1.97837 17.4714 1.97834 16.7222 2.05831 16.1274C2.14271 15.4996 2.32838 14.9328 2.78385 14.4773C3.23932 14.0219 3.80612 13.8362 4.43392 13.7518C5.0287 13.6718 5.77792 13.6718 6.6764 13.6719ZM4.63379 15.2384C4.17233 15.3005 3.97483 15.4077 3.84451 15.538C3.7142 15.6683 3.60697 15.8658 3.54493 16.3273C3.47999 16.8103 3.4784 17.4579 3.4784 18.4219C3.4784 19.3859 3.47999 20.0334 3.54493 20.5165C3.60697 20.9779 3.7142 21.1754 3.84451 21.3058C3.97483 21.4361 4.17233 21.5433 4.63379 21.6053C5.11683 21.6703 5.76439 21.6719 6.7284 21.6719C7.69241 21.6719 8.33997 21.6703 8.823 21.6053C9.28447 21.5433 9.48196 21.4361 9.61228 21.3058C9.7426 21.1754 9.84982 20.9779 9.91186 20.5165C9.9768 20.0334 9.9784 19.3859 9.9784 18.4219C9.9784 17.4579 9.9768 16.8103 9.91186 16.3273C9.84982 15.8658 9.7426 15.6683 9.61228 15.538C9.48196 15.4077 9.28447 15.3005 8.823 15.2384C8.33997 15.1735 7.69241 15.1719 6.7284 15.1719C5.76439 15.1719 5.11683 15.1735 4.63379 15.2384Z" fill="#1C274C"/>
<path fill-rule="evenodd" clip-rule="evenodd" d="M17.6764 2.67188C16.7779 2.67185 16.0287 2.67182 15.4339 2.75179C14.8061 2.83619 14.2393 3.02186 13.7839 3.47733C13.3284 3.9328 13.1427 4.4996 13.0583 5.1274C12.9783 5.72218 12.9784 6.4714 12.9784 7.36988V7.47388C12.9784 8.37236 12.9783 9.12158 13.0583 9.71636C13.1427 10.3442 13.3284 10.911 13.7839 11.3664C14.2393 11.8219 14.8061 12.0076 15.4339 12.092C16.0287 12.1719 16.7779 12.1719 17.6764 12.1719H17.7804C18.6789 12.1719 19.4281 12.1719 20.0229 12.092C20.6507 12.0076 21.2175 11.8219 21.6729 11.3664C22.1284 10.911 22.3141 10.3442 22.3985 9.71636C22.4785 9.12158 22.4784 8.37237 22.4784 7.4739V7.36988C22.4784 6.47142 22.4785 5.72217 22.3985 5.1274C22.3141 4.4996 22.1284 3.9328 21.6729 3.47733C21.2175 3.02186 20.6507 2.83619 20.0229 2.75179C19.4281 2.67182 18.6789 2.67185 17.7804 2.67188H17.6764ZM14.8445 4.53799C14.9748 4.40768 15.1723 4.30046 15.6338 4.23841C16.1168 4.17347 16.7644 4.17188 17.7284 4.17188C18.6924 4.17188 19.34 4.17347 19.823 4.23841C20.2845 4.30046 20.482 4.40768 20.6123 4.53799C20.7426 4.66831 20.8498 4.86581 20.9119 5.32727C20.9768 5.81031 20.9784 6.45787 20.9784 7.42188C20.9784 8.38589 20.9768 9.03345 20.9119 9.51649C20.8498 9.97795 20.7426 10.1754 20.6123 10.3058C20.482 10.4361 20.2845 10.5433 19.823 10.6053C19.34 10.6703 18.6924 10.6719 17.7284 10.6719C16.7644 10.6719 16.1168 10.6703 15.6338 10.6053C15.1723 10.5433 14.9748 10.4361 14.8445 10.3058C14.7142 10.1754 14.607 9.97795 14.5449 9.51649C14.48 9.03345 14.4784 8.38589 14.4784 7.42188C14.4784 6.45787 14.48 5.81031 14.5449 5.32727C14.607 4.86581 14.7142 4.66831 14.8445 4.53799Z" fill="#1C274C"/>
</g>
<defs>
<clipPath id="clip0_2_4">
<rect x="-882" y="-518" width="1067.22" height="720.632" rx="40" transform="rotate(-0.301821 -882 -518)" fill="white"/>
</clipPath>
</defs>
</svg>
