<svg width="22" height="22" viewBox="0 0 22 22" fill="none" xmlns="http://www.w3.org/2000/svg">
<path fill-rule="evenodd" clip-rule="evenodd" d="M5.6764 0.671876C4.77793 0.671848 4.02869 0.671824 3.43392 0.751789C2.80612 0.836194 2.23932 1.02186 1.78385 1.47733C1.32838 1.9328 1.14271 2.4996 1.05831 3.1274C0.978342 3.72217 0.978366 4.47138 0.978395 5.36985V5.47388C0.978366 6.37234 0.978342 7.12158 1.05831 7.71636C1.14271 8.34415 1.32838 8.91095 1.78385 9.36642C2.23932 9.82189 2.80612 10.0076 3.43392 10.092C4.02869 10.1719 4.7779 10.1719 5.67637 10.1719H5.78039C6.67886 10.1719 7.4281 10.1719 8.02288 10.092C8.65067 10.0076 9.21747 9.82189 9.67294 9.36642C10.1284 8.91095 10.3141 8.34415 10.3985 7.71636C10.4785 7.12158 10.4784 6.37237 10.4784 5.4739V5.36988C10.4784 4.47142 10.4785 3.72217 10.3985 3.1274C10.3141 2.4996 10.1284 1.9328 9.67294 1.47733C9.21747 1.02186 8.65067 0.836194 8.02288 0.751789C7.4281 0.671824 6.67889 0.671848 5.78042 0.671876H5.6764ZM2.84451 2.53799C2.97483 2.40768 3.17233 2.30046 3.63379 2.23841C4.11683 2.17347 4.76439 2.17188 5.7284 2.17188C6.69241 2.17188 7.33997 2.17347 7.823 2.23841C8.28447 2.30046 8.48196 2.40768 8.61228 2.53799C8.7426 2.66831 8.84982 2.86581 8.91186 3.32727C8.9768 3.81031 8.9784 4.45787 8.9784 5.42188C8.9784 6.38589 8.9768 7.03345 8.91186 7.51649C8.84982 7.97795 8.7426 8.17545 8.61228 8.30576C8.48196 8.43608 8.28447 8.5433 7.823 8.60534C7.33997 8.67029 6.69241 8.67188 5.7284 8.67188C4.76439 8.67188 4.11683 8.67029 3.63379 8.60534C3.17233 8.5433 2.97483 8.43608 2.84451 8.30576C2.7142 8.17545 2.60697 7.97795 2.54493 7.51649C2.47999 7.03345 2.4784 6.38589 2.4784 5.42188C2.4784 4.45787 2.47999 3.81031 2.54493 3.32727C2.60697 2.86581 2.7142 2.66831 2.84451 2.53799Z" fill="#1C274C"/>
<path fill-rule="evenodd" clip-rule="evenodd" d="M16.6764 11.6719C15.7779 11.6718 15.0287 11.6718 14.4339 11.7518C13.8061 11.8362 13.2393 12.0219 12.7839 12.4773C12.3284 12.9328 12.1427 13.4996 12.0583 14.1274C11.9783 14.7222 11.9784 15.4714 11.9784 16.3699V16.4739C11.9784 17.3724 11.9783 18.1216 12.0583 18.7164C12.1427 19.3442 12.3284 19.911 12.7839 20.3664C13.2393 20.8219 13.8061 21.0076 14.4339 21.092C15.0287 21.1719 15.7779 21.1719 16.6763 21.1719H16.7804C17.6788 21.1719 18.4281 21.1719 19.0229 21.092C19.6507 21.0076 20.2175 20.8219 20.6729 20.3664C21.1284 19.911 21.3141 19.3442 21.3985 18.7164C21.4785 18.1216 21.4784 17.3724 21.4784 16.474V16.3699C21.4784 15.4714 21.4785 14.7222 21.3985 14.1274C21.3141 13.4996 21.1284 12.9328 20.6729 12.4773C20.2175 12.0219 19.6507 11.8362 19.0229 11.7518C18.4281 11.6718 17.6789 11.6718 16.7804 11.6719H16.6764ZM13.8445 13.538C13.9748 13.4077 14.1723 13.3005 14.6338 13.2384C15.1168 13.1735 15.7644 13.1719 16.7284 13.1719C17.6924 13.1719 18.34 13.1735 18.823 13.2384C19.2845 13.3005 19.482 13.4077 19.6123 13.538C19.7426 13.6683 19.8498 13.8658 19.9119 14.3273C19.9768 14.8103 19.9784 15.4579 19.9784 16.4219C19.9784 17.3859 19.9768 18.0334 19.9119 18.5165C19.8498 18.9779 19.7426 19.1754 19.6123 19.3058C19.482 19.4361 19.2845 19.5433 18.823 19.6053C18.34 19.6703 17.6924 19.6719 16.7284 19.6719C15.7644 19.6719 15.1168 19.6703 14.6338 19.6053C14.1723 19.5433 13.9748 19.4361 13.8445 19.3058C13.7142 19.1754 13.607 18.9779 13.5449 18.5165C13.48 18.0334 13.4784 17.3859 13.4784 16.4219C13.4784 15.4579 13.48 14.8103 13.5449 14.3273C13.607 13.8658 13.7142 13.6683 13.8445 13.538Z" fill="#1C274C"/>
<path fill-rule="evenodd" clip-rule="evenodd" d="M5.6764 11.6719H5.7804C6.67888 11.6718 7.42809 11.6718 8.02288 11.7518C8.65067 11.8362 9.21747 12.0219 9.67294 12.4773C10.1284 12.9328 10.3141 13.4996 10.3985 14.1274C10.4785 14.7222 10.4784 15.4714 10.4784 16.3699V16.4739C10.4784 17.3723 10.4785 18.1216 10.3985 18.7164C10.3141 19.3442 10.1284 19.911 9.67294 20.3664C9.21747 20.8219 8.65067 21.0076 8.02288 21.092C7.42811 21.1719 6.67891 21.1719 5.78045 21.1719H5.6764C4.77795 21.1719 4.02869 21.1719 3.43392 21.092C2.80612 21.0076 2.23932 20.8219 1.78385 20.3664C1.32838 19.911 1.14271 19.3442 1.05831 18.7164C0.978342 18.1216 0.978366 17.3724 0.978395 16.4739V16.3699C0.978366 15.4714 0.978342 14.7222 1.05831 14.1274C1.14271 13.4996 1.32838 12.9328 1.78385 12.4773C2.23932 12.0219 2.80612 11.8362 3.43392 11.7518C4.0287 11.6718 4.77792 11.6718 5.6764 11.6719ZM3.63379 13.2384C3.17233 13.3005 2.97483 13.4077 2.84451 13.538C2.7142 13.6683 2.60697 13.8658 2.54493 14.3273C2.47999 14.8103 2.4784 15.4579 2.4784 16.4219C2.4784 17.3859 2.47999 18.0334 2.54493 18.5165C2.60697 18.9779 2.7142 19.1754 2.84451 19.3058C2.97483 19.4361 3.17233 19.5433 3.63379 19.6053C4.11683 19.6703 4.76439 19.6719 5.7284 19.6719C6.69241 19.6719 7.33997 19.6703 7.823 19.6053C8.28447 19.5433 8.48196 19.4361 8.61228 19.3058C8.7426 19.1754 8.84982 18.9779 8.91186 18.5165C8.9768 18.0334 8.9784 17.3859 8.9784 16.4219C8.9784 15.4579 8.9768 14.8103 8.91186 14.3273C8.84982 13.8658 8.7426 13.6683 8.61228 13.538C8.48196 13.4077 8.28447 13.3005 7.823 13.2384C7.33997 13.1735 6.69241 13.1719 5.7284 13.1719C4.76439 13.1719 4.11683 13.1735 3.63379 13.2384Z" fill="#1C274C"/>
<path fill-rule="evenodd" clip-rule="evenodd" d="M16.6764 0.671876C15.7779 0.671848 15.0287 0.671824 14.4339 0.751789C13.8061 0.836194 13.2393 1.02186 12.7839 1.47733C12.3284 1.9328 12.1427 2.4996 12.0583 3.1274C11.9783 3.72218 11.9784 4.4714 11.9784 5.36988V5.47388C11.9784 6.37236 11.9783 7.12158 12.0583 7.71636C12.1427 8.34415 12.3284 8.91095 12.7839 9.36642C13.2393 9.82189 13.8061 10.0076 14.4339 10.092C15.0287 10.1719 15.7779 10.1719 16.6764 10.1719H16.7804C17.6789 10.1719 18.4281 10.1719 19.0229 10.092C19.6507 10.0076 20.2175 9.82189 20.6729 9.36642C21.1284 8.91095 21.3141 8.34415 21.3985 7.71636C21.4785 7.12158 21.4784 6.37237 21.4784 5.4739V5.36988C21.4784 4.47142 21.4785 3.72217 21.3985 3.1274C21.3141 2.4996 21.1284 1.9328 20.6729 1.47733C20.2175 1.02186 19.6507 0.836194 19.0229 0.751789C18.4281 0.671824 17.6789 0.671848 16.7804 0.671876H16.6764ZM13.8445 2.53799C13.9748 2.40768 14.1723 2.30046 14.6338 2.23841C15.1168 2.17347 15.7644 2.17188 16.7284 2.17188C17.6924 2.17188 18.34 2.17347 18.823 2.23841C19.2845 2.30046 19.482 2.40768 19.6123 2.53799C19.7426 2.66831 19.8498 2.86581 19.9119 3.32727C19.9768 3.81031 19.9784 4.45787 19.9784 5.42188C19.9784 6.38589 19.9768 7.03345 19.9119 7.51649C19.8498 7.97795 19.7426 8.17545 19.6123 8.30576C19.482 8.43608 19.2845 8.5433 18.823 8.60534C18.34 8.67029 17.6924 8.67188 16.7284 8.67188C15.7644 8.67188 15.1168 8.67029 14.6338 8.60534C14.1723 8.5433 13.9748 8.43608 13.8445 8.30576C13.7142 8.17545 13.607 7.97795 13.5449 7.51649C13.48 7.03345 13.4784 6.38589 13.4784 5.42188C13.4784 4.45787 13.48 3.81031 13.5449 3.32727C13.607 2.86581 13.7142 2.66831 13.8445 2.53799Z" fill="#1C274C"/>
</svg>
