<svg width="26" height="25" viewBox="0 0 26 25" fill="none" xmlns="http://www.w3.org/2000/svg">
<rect width="26" height="25" fill="#F2F2F3"/>
<g clip-path="url(#clip0_2_4)">
<rect x="-132" y="-538" width="1067.22" height="720.632" rx="40" transform="rotate(-0.301821 -132 -538)" fill="white"/>
</g>
<rect x="-18.9383" y="-67.4841" width="63" height="107" rx="4.5" transform="rotate(-0.301821 -18.9383 -67.4841)" stroke="#7C7C7C" stroke-dasharray="10 5"/>
<path d="M14.5371 18.4819L21.7896 18.4437" stroke="black" stroke-width="1.5" stroke-linecap="round" stroke-linejoin="round"/>
<path fill-rule="evenodd" clip-rule="evenodd" d="M13.4821 1.83897C14.2528 0.907887 15.6464 0.764613 16.5966 1.5195C16.6492 1.56044 18.337 2.8574 18.337 2.8574C19.3798 3.48032 19.7098 4.81451 19.0726 5.83737C19.0388 5.89214 9.59817 17.8293 9.59817 17.8293C9.28409 18.2254 8.80538 18.4608 8.29249 18.4691L4.6534 18.5339L3.81513 15.0676C3.69769 14.5802 3.80986 14.0671 4.12395 13.671L13.4821 1.83897Z" stroke="black" stroke-width="1.5" stroke-linecap="round" stroke-linejoin="round"/>
<path d="M11.7346 4.0542L17.2088 8.21255" stroke="black" stroke-width="1.5" stroke-linecap="round" stroke-linejoin="round"/>
<defs>
<clipPath id="clip0_2_4">
<rect x="-132" y="-538" width="1067.22" height="720.632" rx="40" transform="rotate(-0.301821 -132 -538)" fill="white"/>
</clipPath>
</defs>
</svg>
