<svg width="25" height="25" viewBox="0 0 25 25" fill="none" xmlns="http://www.w3.org/2000/svg">
<rect width="25" height="25" fill="#F2F2F3"/>
<g clip-path="url(#clip0_2_4)">
<rect x="-787" y="-524" width="1067.22" height="720.632" rx="40" transform="rotate(-0.301821 -787 -524)" fill="white"/>
<rect width="350.654" height="428.023" transform="translate(-132.937 -355.09) rotate(-0.301821)" fill="white"/>
<rect x="-18.3577" y="-67.1641" width="61" height="106" rx="4.5" stroke="#7C7C7C" stroke-dasharray="10 5"/>
<path fill-rule="evenodd" clip-rule="evenodd" d="M12.8945 2.10986H13.0073C14.8451 2.10985 16.3007 2.10984 17.4399 2.263C18.6124 2.42063 19.5613 2.75274 20.3097 3.50111C21.058 4.24947 21.3902 5.19842 21.5478 6.37084C21.6505 7.13491 21.6843 8.04131 21.6955 9.10986H21.9509C22.9174 9.10986 23.7009 9.89337 23.7009 10.8599V11.8599C23.7009 12.4107 23.4416 12.9294 23.0009 13.2599L21.6985 14.2367C21.6912 15.4692 21.6623 16.4974 21.5478 17.3489C21.3902 18.5213 21.058 19.4703 20.3097 20.2186C20.1198 20.4085 19.917 20.5716 19.7009 20.7118V21.8599C19.7009 22.8264 18.9174 23.6099 17.9509 23.6099H16.4509C15.4844 23.6099 14.7009 22.8264 14.7009 21.8599V21.6044C14.1763 21.6099 13.6125 21.6099 13.0073 21.6099H12.8945C12.2893 21.6099 11.7256 21.6099 11.2009 21.6044V21.8599C11.2009 22.8264 10.4174 23.6099 9.45093 23.6099H7.95093C6.98443 23.6099 6.20093 22.8264 6.20093 21.8599V20.7118C5.98485 20.5716 5.78205 20.4085 5.59217 20.2186C4.84381 19.4703 4.51169 18.5213 4.35406 17.3489C4.23958 16.4974 4.21068 15.4692 4.20338 14.2367L2.90093 13.2599C2.46027 12.9294 2.20093 12.4107 2.20093 11.8599V10.8599C2.20093 9.89337 2.98443 9.10986 3.95093 9.10986H4.20638C4.21751 8.04131 4.25134 7.13491 4.35406 6.37084C4.51169 5.19842 4.84381 4.24947 5.59217 3.50111C6.34053 2.75274 7.28948 2.42063 8.4619 2.263C9.60112 2.10984 11.0568 2.10985 12.8945 2.10986ZM4.20093 10.6099H3.95093C3.81286 10.6099 3.70093 10.7218 3.70093 10.8599V11.8599C3.70093 11.9386 3.73798 12.0127 3.80093 12.0599L4.20093 12.3599L4.20093 10.8034C4.20093 10.7384 4.20093 10.6739 4.20093 10.6099ZM5.70665 14.6099C5.71755 15.6435 5.74913 16.4681 5.84069 17.149C5.97595 18.1551 6.22962 18.7347 6.65283 19.158C7.07604 19.5812 7.65569 19.8348 8.66178 19.9701C9.68944 20.1083 11.0441 20.1099 12.9509 20.1099C14.8577 20.1099 16.2124 20.1083 17.2401 19.9701C18.2462 19.8348 18.8258 19.5812 19.249 19.158C19.6722 18.7347 19.9259 18.1551 20.0612 17.149C20.1527 16.4681 20.1843 15.6435 20.1952 14.6099H5.70665ZM20.2009 13.1099H5.70095C5.70093 13.0276 5.70093 12.9443 5.70093 12.8599V10.8599C5.70093 8.97716 5.70248 7.63273 5.83551 6.60986H20.0663C20.1994 7.63273 20.2009 8.97716 20.2009 10.8599V12.8599C20.2009 12.9443 20.2009 13.0276 20.2009 13.1099ZM21.7009 12.3599L22.1009 12.0599C22.1639 12.0127 22.2009 11.9386 22.2009 11.8599V10.8599C22.2009 10.7218 22.089 10.6099 21.9509 10.6099H21.7009C21.7009 10.6739 21.7009 10.7384 21.7009 10.8035V12.3599ZM19.652 5.10986C19.5392 4.89659 19.4057 4.71845 19.249 4.56177C18.8258 4.13856 18.2462 3.88489 17.2401 3.74962C16.2124 3.61146 14.8577 3.60986 12.9509 3.60986C11.0441 3.60986 9.68944 3.61146 8.66178 3.74962C7.65569 3.88489 7.07604 4.13856 6.65283 4.56177C6.49614 4.71845 6.36269 4.89659 6.24989 5.10986H19.652ZM7.70093 21.3203V21.8599C7.70093 21.9979 7.81286 22.1099 7.95093 22.1099H9.45093C9.589 22.1099 9.70093 21.9979 9.70093 21.8599V21.5641C9.25159 21.5414 8.83938 21.5075 8.4619 21.4567C8.19692 21.4211 7.94335 21.3766 7.70093 21.3203ZM16.2009 21.5641V21.8599C16.2009 21.9979 16.3129 22.1099 16.4509 22.1099H17.9509C18.089 22.1099 18.2009 21.9979 18.2009 21.8599V21.3203C17.9585 21.3766 17.7049 21.4211 17.44 21.4567C17.0625 21.5075 16.6503 21.5414 16.2009 21.5641ZM7.20093 16.8599C7.20093 16.4457 7.53671 16.1099 7.95093 16.1099H9.45093C9.86514 16.1099 10.2009 16.4457 10.2009 16.8599C10.2009 17.2741 9.86514 17.6099 9.45093 17.6099H7.95093C7.53671 17.6099 7.20093 17.2741 7.20093 16.8599ZM15.7009 16.8599C15.7009 16.4457 16.0367 16.1099 16.4509 16.1099H17.9509C18.3651 16.1099 18.7009 16.4457 18.7009 16.8599C18.7009 17.2741 18.3651 17.6099 17.9509 17.6099H16.4509C16.0367 17.6099 15.7009 17.2741 15.7009 16.8599Z" fill="#1C274C"/>
</g>
<defs>
<clipPath id="clip0_2_4">
<rect x="-787" y="-524" width="1067.22" height="720.632" rx="40" transform="rotate(-0.301821 -787 -524)" fill="white"/>
</clipPath>
</defs>
</svg>
