<svg width="25" height="25" viewBox="0 0 25 25" fill="none" xmlns="http://www.w3.org/2000/svg">
<rect width="25" height="25" fill="#F2F2F3"/>
<g clip-path="url(#clip0_2_4)">
<rect x="-131" y="-269" width="1067.22" height="720.632" rx="40" transform="rotate(-0.301821 -131 -269)" fill="white"/>
</g>
<rect x="-19.3289" y="-62.4807" width="63" height="107" rx="4.5" transform="rotate(-0.301821 -19.3289 -62.4807)" stroke="#7C7C7C" stroke-dasharray="10 5"/>
<mask id="mask0_2_4" style="mask-type:luminance" maskUnits="userSpaceOnUse" x="0" y="0" width="22" height="23">
<path fill-rule="evenodd" clip-rule="evenodd" d="M0.505371 0.915527L21.0049 0.80754L21.1182 22.3122L0.618654 22.4202L0.505371 0.915527Z" fill="white"/>
</mask>
<g mask="url(#mask0_2_4)">
<path fill-rule="evenodd" clip-rule="evenodd" d="M12.2972 15.1449C13.5012 15.1385 14.4863 16.1063 14.4926 17.3023L14.5088 20.3783C14.5102 20.6353 14.7173 20.8402 14.9813 20.8448L16.8873 20.8348C18.3893 20.8268 19.6039 19.6144 19.5961 18.1325L19.5501 9.40857C19.5404 8.89861 19.2949 8.4199 18.8762 8.1031L12.2556 2.87991C11.367 2.18358 10.129 2.1901 9.24469 2.89777L2.72446 8.18619C2.2932 8.51746 2.05273 8.99874 2.05046 9.51776L2.09633 18.2246C2.10414 19.7066 3.33147 20.9062 4.83345 20.8983L6.75742 20.8881C7.02842 20.8867 7.24728 20.6705 7.24589 20.4065C7.24559 20.3485 7.25228 20.2905 7.26399 20.2354L7.24874 17.3405C7.24248 16.1515 8.21135 15.1744 9.40629 15.1601L12.2972 15.1449ZM16.8952 22.3347L14.9712 22.3449C13.8691 22.3247 13.0145 21.4642 13.0089 20.3862L12.9927 17.3102C12.9907 16.9412 12.6821 16.6429 12.3051 16.6448L9.41919 16.66C9.0502 16.664 8.74679 16.9666 8.74872 17.3326L8.76487 20.3985C8.76527 20.4735 8.75565 20.5456 8.73501 20.6137C8.63222 21.6043 7.79031 22.3827 6.76533 22.3881L4.84135 22.3982C2.51238 22.4105 0.608513 20.5415 0.59635 18.2325L0.550447 9.51866C0.55521 8.52462 1.00841 7.61222 1.79624 7.00906L8.30352 1.72971C9.7365 0.582144 11.7415 0.571583 13.1834 1.702L19.793 6.91726C20.5691 7.50218 21.0319 8.40775 21.0501 9.38967L21.0961 18.1245C21.1082 20.4335 19.2242 22.3225 16.8952 22.3347Z" fill="black"/>
</g>
<defs>
<clipPath id="clip0_2_4">
<rect x="-131" y="-269" width="1067.22" height="720.632" rx="40" transform="rotate(-0.301821 -131 -269)" fill="white"/>
</clipPath>
</defs>
</svg>
