<svg width="25" height="26" viewBox="0 0 25 26" fill="none" xmlns="http://www.w3.org/2000/svg">
<rect width="25" height="26" fill="#F2F2F3"/>
<g clip-path="url(#clip0_2_4)">
<rect x="-132" y="-400" width="1067.22" height="720.632" rx="40" transform="rotate(-0.301821 -132 -400)" fill="white"/>
</g>
<rect x="-19.6336" y="-61.4821" width="63" height="107" rx="4.5" transform="rotate(-0.301821 -19.6336 -61.4821)" stroke="#7C7C7C" stroke-dasharray="10 5"/>
<path fill-rule="evenodd" clip-rule="evenodd" d="M16.5133 3.74794L7.86138 3.79352C4.84942 3.80939 2.97169 5.95331 2.9876 8.97326L3.03051 17.1192C3.04642 20.1391 4.93863 22.2632 7.95859 22.2473L16.6055 22.2017C19.6304 22.1858 21.4992 20.0419 21.4833 17.0219L21.4403 8.87606C21.4284 5.85608 19.5362 3.73202 16.5133 3.74794Z" stroke="black" stroke-width="1.5" stroke-linecap="round" stroke-linejoin="round"/>
<path fill-rule="evenodd" clip-rule="evenodd" d="M10.9456 9.81237C10.9509 10.8324 10.1293 11.6627 9.10932 11.6681C8.09033 11.6734 7.25899 10.8518 7.25362 9.83181C7.24825 8.81183 8.07088 7.98148 9.08987 7.97612C10.1089 7.97175 10.9392 8.79339 10.9456 9.81237Z" stroke="black" stroke-width="1.5" stroke-linecap="round" stroke-linejoin="round"/>
<path d="M21.4819 15.923C20.5539 14.9779 18.7688 13.0682 16.8388 13.0784C14.9079 13.0886 13.8172 17.3274 11.9602 17.3372C10.1032 17.347 8.40616 15.4419 6.92465 16.6767C5.44313 17.9105 4.04835 20.4249 4.04835 20.4249" stroke="black" stroke-width="1.5" stroke-linecap="round" stroke-linejoin="round"/>
<defs>
<clipPath id="clip0_2_4">
<rect x="-132" y="-400" width="1067.22" height="720.632" rx="40" transform="rotate(-0.301821 -132 -400)" fill="white"/>
</clipPath>
</defs>
</svg>
