<svg width="24" height="25" viewBox="0 0 24 25" fill="none" xmlns="http://www.w3.org/2000/svg">
<rect width="24" height="25" fill="#F2F2F3"/>
<g clip-path="url(#clip0_2_4)">
<rect x="-325" y="-400" width="1067.22" height="720.632" rx="40" transform="rotate(-0.301821 -325 -400)" fill="white"/>
</g>
<rect x="-19.5178" y="-62.4971" width="62" height="106" rx="4.5" stroke="#7C7C7C" stroke-dasharray="10 5"/>
<path d="M12.75 9.64258C12.75 9.22836 12.4142 8.89258 12 8.89258C11.5858 8.89258 11.25 9.22836 11.25 9.64258L11.25 11.8926H9C8.58579 11.8926 8.25 12.2284 8.25 12.6426C8.25 13.0568 8.58579 13.3926 9 13.3926H11.25V15.6426C11.25 16.0568 11.5858 16.3926 12 16.3926C12.4142 16.3926 12.75 16.0568 12.75 15.6426L12.75 13.3926H15C15.4142 13.3926 15.75 13.0568 15.75 12.6426C15.75 12.2284 15.4142 11.8926 15 11.8926H12.75V9.64258Z" fill="#1C274C"/>
<path fill-rule="evenodd" clip-rule="evenodd" d="M12 1.89258C6.06294 1.89258 1.25 6.70552 1.25 12.6426C1.25 18.5796 6.06294 23.3926 12 23.3926C17.9371 23.3926 22.75 18.5796 22.75 12.6426C22.75 6.70552 17.9371 1.89258 12 1.89258ZM2.75 12.6426C2.75 7.53394 6.89137 3.39258 12 3.39258C17.1086 3.39258 21.25 7.53394 21.25 12.6426C21.25 17.7512 17.1086 21.8926 12 21.8926C6.89137 21.8926 2.75 17.7512 2.75 12.6426Z" fill="#1C274C"/>
<defs>
<clipPath id="clip0_2_4">
<rect x="-325" y="-400" width="1067.22" height="720.632" rx="40" transform="rotate(-0.301821 -325 -400)" fill="white"/>
</clipPath>
</defs>
</svg>
