<svg width="21" height="20" viewBox="0 0 21 20" fill="none" xmlns="http://www.w3.org/2000/svg">
<path fill-rule="evenodd" clip-rule="evenodd" d="M14.5133 0.747942L5.86138 0.793519C2.84942 0.809385 0.971691 2.95331 0.987599 5.97326L1.03051 14.1192C1.04642 17.1391 2.93863 19.2632 5.95859 19.2473L14.6055 19.2017C17.6304 19.1858 19.4992 17.0419 19.4833 14.0219L19.4403 5.87606C19.4284 2.85608 17.5362 0.732018 14.5133 0.747942Z" stroke="black" stroke-width="1.5" stroke-linecap="round" stroke-linejoin="round"/>
<path fill-rule="evenodd" clip-rule="evenodd" d="M8.94557 6.81237C8.95094 7.83235 8.12931 8.66269 7.10932 8.66806C6.09033 8.67343 5.25899 7.8518 5.25362 6.83181C5.24825 5.81183 6.07088 4.98148 7.08987 4.97612C8.10886 4.97175 8.9392 5.79339 8.94557 6.81237Z" stroke="black" stroke-width="1.5" stroke-linecap="round" stroke-linejoin="round"/>
<path d="M19.4819 12.923C18.5539 11.9779 16.7688 10.0682 14.8388 10.0784C12.9079 10.0886 11.8172 14.3274 9.9602 14.3372C8.10322 14.347 6.40616 12.4419 4.92465 13.6767C3.44313 14.9105 2.04835 17.4249 2.04835 17.4249" stroke="black" stroke-width="1.5" stroke-linecap="round" stroke-linejoin="round"/>
</svg>
