<svg width="22" height="23" viewBox="0 0 22 23" fill="none" xmlns="http://www.w3.org/2000/svg">
<path d="M11.75 8.64258C11.75 8.22836 11.4142 7.89258 11 7.89258C10.5858 7.89258 10.25 8.22836 10.25 8.64258L10.25 10.8926H8C7.58579 10.8926 7.25 11.2284 7.25 11.6426C7.25 12.0568 7.58579 12.3926 8 12.3926H10.25V14.6426C10.25 15.0568 10.5858 15.3926 11 15.3926C11.4142 15.3926 11.75 15.0568 11.75 14.6426L11.75 12.3926H14C14.4142 12.3926 14.75 12.0568 14.75 11.6426C14.75 11.2284 14.4142 10.8926 14 10.8926H11.75V8.64258Z" fill="#1C274C"/>
<path fill-rule="evenodd" clip-rule="evenodd" d="M11 0.892578C5.06294 0.892578 0.25 5.70552 0.25 11.6426C0.25 17.5796 5.06294 22.3926 11 22.3926C16.9371 22.3926 21.75 17.5796 21.75 11.6426C21.75 5.70552 16.9371 0.892578 11 0.892578ZM1.75 11.6426C1.75 6.53394 5.89137 2.39258 11 2.39258C16.1086 2.39258 20.25 6.53394 20.25 11.6426C20.25 16.7512 16.1086 20.8926 11 20.8926C5.89137 20.8926 1.75 16.7512 1.75 11.6426Z" fill="#1C274C"/>
</svg>
