<svg width="25" height="25" viewBox="0 0 25 25" fill="none" xmlns="http://www.w3.org/2000/svg">
<g clip-path="url(#clip0_373_275)">
<path fill-rule="evenodd" clip-rule="evenodd" d="M12.4834 1.75732C9.86005 1.75732 7.7334 3.88397 7.7334 6.50732C7.7334 9.13068 9.86005 11.2573 12.4834 11.2573C15.1068 11.2573 17.2334 9.13068 17.2334 6.50732C17.2334 3.88397 15.1068 1.75732 12.4834 1.75732ZM9.2334 6.50732C9.2334 4.7124 10.6885 3.25732 12.4834 3.25732C14.2783 3.25732 15.7334 4.7124 15.7334 6.50732C15.7334 8.30225 14.2783 9.75732 12.4834 9.75732C10.6885 9.75732 9.2334 8.30225 9.2334 6.50732Z" fill="#1C274C"/>
<path d="M18.4834 3.75732C18.0692 3.75732 17.7334 4.09311 17.7334 4.50732C17.7334 4.92154 18.0692 5.25732 18.4834 5.25732C19.8599 5.25732 20.7334 6.16305 20.7334 7.00732C20.7334 7.85159 19.8599 8.75732 18.4834 8.75732C18.0692 8.75732 17.7334 9.09311 17.7334 9.50732C17.7334 9.92154 18.0692 10.2573 18.4834 10.2573C20.4206 10.2573 22.2334 8.92448 22.2334 7.00732C22.2334 5.09017 20.4206 3.75732 18.4834 3.75732Z" fill="#1C274C"/>
<path d="M7.2334 4.50732C7.2334 4.09311 6.89761 3.75732 6.4834 3.75732C4.54618 3.75732 2.7334 5.09017 2.7334 7.00732C2.7334 8.92448 4.54618 10.2573 6.4834 10.2573C6.89761 10.2573 7.2334 9.92154 7.2334 9.50732C7.2334 9.09311 6.89761 8.75732 6.4834 8.75732C5.10691 8.75732 4.2334 7.85159 4.2334 7.00732C4.2334 6.16305 5.10691 5.25732 6.4834 5.25732C6.89761 5.25732 7.2334 4.92154 7.2334 4.50732Z" fill="#1C274C"/>
<path fill-rule="evenodd" clip-rule="evenodd" d="M12.4834 12.7573C10.6991 12.7573 9.04985 13.2381 7.82473 14.0549C6.60486 14.8681 5.7334 16.074 5.7334 17.5073C5.7334 18.9407 6.60486 20.1465 7.82473 20.9598C9.04985 21.7765 10.6991 22.2573 12.4834 22.2573C14.2677 22.2573 15.9169 21.7765 17.1421 20.9598C18.3619 20.1465 19.2334 18.9407 19.2334 17.5073C19.2334 16.074 18.3619 14.8681 17.1421 14.0549C15.9169 13.2381 14.2677 12.7573 12.4834 12.7573ZM7.2334 17.5073C7.2334 16.7315 7.70508 15.9374 8.65678 15.3029C9.60324 14.672 10.954 14.2573 12.4834 14.2573C14.0128 14.2573 15.3636 14.672 16.31 15.3029C17.2617 15.9374 17.7334 16.7315 17.7334 17.5073C17.7334 18.2831 17.2617 19.0772 16.31 19.7117C15.3636 20.3427 14.0128 20.7573 12.4834 20.7573C10.954 20.7573 9.60324 20.3427 8.65678 19.7117C7.70508 19.0772 7.2334 18.2831 7.2334 17.5073Z" fill="#1C274C"/>
<path d="M19.7508 14.3467C19.8395 13.9421 20.2395 13.686 20.6441 13.7747C21.6059 13.9857 22.4727 14.3667 23.1162 14.8932C23.7591 15.4194 24.2334 16.1426 24.2334 17.0073C24.2334 17.8721 23.7591 18.5953 23.1162 19.1214C22.4727 19.648 21.6059 20.029 20.6441 20.2399C20.2395 20.3286 19.8395 20.0726 19.7508 19.668C19.6621 19.2634 19.9181 18.8635 20.3227 18.7747C21.1151 18.601 21.7483 18.3025 22.1663 17.9605C22.5848 17.6181 22.7334 17.2836 22.7334 17.0073C22.7334 16.731 22.5848 16.3966 22.1663 16.0541C21.7483 15.7121 21.1151 15.4137 20.3227 15.2399C19.9181 15.1512 19.6621 14.7513 19.7508 14.3467Z" fill="#1C274C"/>
<path d="M4.32275 13.7747C4.72734 13.686 5.12726 13.9421 5.21599 14.3467C5.30472 14.7513 5.04865 15.1512 4.64405 15.2399C3.85169 15.4137 3.21845 15.7121 2.80052 16.0541C2.38203 16.3966 2.2334 16.731 2.2334 17.0073C2.2334 17.2836 2.38203 17.6181 2.80052 17.9605C3.21845 18.3025 3.85169 18.601 4.64405 18.7747C5.04865 18.8635 5.30472 19.2634 5.21599 19.668C5.12726 20.0726 4.72734 20.3286 4.32275 20.2399C3.36086 20.029 2.4941 19.648 1.85059 19.1214C1.20765 18.5953 0.733398 17.8721 0.733398 17.0073C0.733398 16.1426 1.20765 15.4194 1.85059 14.8932C2.4941 14.3667 3.36086 13.9857 4.32275 13.7747Z" fill="#1C274C"/>
</g>
<defs>
<clipPath id="clip0_373_275">
</clipPath>
</defs>
</svg>
