<svg width="25" height="25" viewBox="0 0 25 25" fill="none" xmlns="http://www.w3.org/2000/svg">
<rect width="25" height="25" fill="#F2F2F3"/>
<g clip-path="url(#clip0_2_4)">
<rect x="-884" y="-396" width="1067.22" height="720.632" rx="40" transform="rotate(-0.301821 -884 -396)" fill="white"/>
<rect width="350.654" height="428.023" transform="translate(-229.937 -227.09) rotate(-0.301821)" fill="white"/>
<rect x="-19.446" y="-68.0068" width="62" height="108" rx="4.5" stroke="#7C7C7C" stroke-dasharray="10 5"/>
<path fill-rule="evenodd" clip-rule="evenodd" d="M11.3459 3.80126C10.9522 4.3154 10.5078 5.10867 9.86223 6.26672L9.53453 6.85457C9.51478 6.89001 9.49527 6.92511 9.47596 6.95986C9.17523 7.50107 8.9214 7.95785 8.5124 8.26834C8.09899 8.58218 7.59501 8.69543 7.0093 8.82706C6.97166 8.83552 6.93368 8.84405 6.89537 8.85272L6.25902 8.9967C5.0037 9.28073 4.14971 9.47616 3.56478 9.70667C2.99398 9.93162 2.87349 10.1159 2.82756 10.2636C2.77909 10.4195 2.77765 10.6579 3.11889 11.2C3.46524 11.7501 4.04954 12.4364 4.90407 13.4356L5.33789 13.9429C5.3631 13.9724 5.38809 14.0016 5.41282 14.0304C5.81583 14.5005 6.15186 14.8925 6.306 15.3882C6.45921 15.8809 6.40843 16.3986 6.34686 17.0263C6.34309 17.0648 6.33927 17.1037 6.33546 17.1431L6.26987 17.8199C6.14078 19.1521 6.05374 20.0693 6.08317 20.7301C6.11255 21.3896 6.25185 21.5719 6.3626 21.656C6.46111 21.7308 6.6432 21.8136 7.23643 21.6436C7.8393 21.4708 8.64055 21.1043 9.81597 20.5631L10.4118 20.2887C10.4485 20.2719 10.4848 20.255 10.5209 20.2384C11.0657 19.9865 11.5383 19.768 12.054 19.768C12.5696 19.768 13.0423 19.9865 13.5871 20.2384C13.6231 20.255 13.6595 20.2719 13.6962 20.2887L14.292 20.5631C15.4674 21.1043 16.2686 21.4708 16.8715 21.6436C17.4647 21.8136 17.6468 21.7308 17.7453 21.656C17.8561 21.5719 17.9954 21.3896 18.0248 20.7301C18.0542 20.0693 17.9672 19.1521 17.8381 17.8199L17.7725 17.1431C17.7687 17.1037 17.7649 17.0648 17.7611 17.0263C17.6995 16.3986 17.6487 15.8809 17.8019 15.3882C17.9561 14.8925 18.2921 14.5005 18.6951 14.0304C18.7199 14.0016 18.7448 13.9724 18.7701 13.9429L19.2039 13.4356C20.0584 12.4364 20.6427 11.7501 20.989 11.2C21.3303 10.6579 21.3288 10.4195 21.2804 10.2636C21.2345 10.1159 21.114 9.93162 20.5432 9.70667C19.9582 9.47615 19.1042 9.28073 17.8489 8.9967L17.2126 8.85272C17.1743 8.84405 17.1363 8.83552 17.0986 8.82706C16.5129 8.69543 16.009 8.58218 15.5955 8.26834C15.1865 7.95786 14.9327 7.50107 14.632 6.95986C14.6127 6.92511 14.5932 6.89001 14.5734 6.85457L14.2457 6.26671C13.6002 5.10867 13.1557 4.3154 12.762 3.80125C12.3687 3.2876 12.1677 3.24316 12.054 3.24316C11.9402 3.24316 11.7393 3.2876 11.3459 3.80126ZM10.155 2.88926C10.6317 2.2668 11.2209 1.74316 12.054 1.74316C12.8871 1.74316 13.4762 2.26679 13.9529 2.88926C14.4213 3.50089 14.918 4.39193 15.525 5.48093L15.8836 6.12422C16.2761 6.8284 16.3766 6.97798 16.5025 7.0736C16.6238 7.16564 16.7802 7.21697 17.5436 7.3897L18.2436 7.54809C19.4192 7.81405 20.3878 8.03315 21.0931 8.31113C21.8253 8.59967 22.4661 9.02496 22.7127 9.81819C22.9568 10.6032 22.6825 11.3255 22.2585 11.9991C21.8465 12.6535 21.1884 13.423 20.3846 14.3629L19.9101 14.9178C19.393 15.5224 19.285 15.6703 19.2343 15.8336C19.1825 16 19.1874 16.1924 19.2655 16.9984L19.337 17.7365C19.4588 18.9925 19.558 20.0168 19.5233 20.7969C19.4879 21.5908 19.3076 22.3533 18.6523 22.8508C17.9848 23.3575 17.2081 23.3004 16.4583 23.0856C15.7313 22.8772 14.825 22.4599 13.7245 21.9531L13.0688 21.6513C12.3515 21.321 12.1979 21.268 12.054 21.268C11.91 21.268 11.7565 21.321 11.0391 21.6513L10.3835 21.9531C9.28293 22.4599 8.37661 22.8772 7.6496 23.0856C6.89983 23.3004 6.12315 23.3575 5.45564 22.8508C4.80036 22.3533 4.62003 21.5908 4.58466 20.7969C4.54991 20.0168 4.64918 18.9925 4.77093 17.7365L4.84245 16.9984C4.92055 16.1924 4.92542 16 4.87366 15.8336C4.82289 15.6703 4.71489 15.5224 4.19789 14.9178L3.7234 14.363C2.91955 13.423 2.26148 12.6535 1.84948 11.9991C1.42545 11.3255 1.15109 10.6032 1.39522 9.81819C1.64189 9.02496 2.28262 8.59967 3.01481 8.31113C3.72017 8.03315 4.6887 7.81405 5.86433 7.54809L5.928 7.53368L6.56435 7.3897C7.32778 7.21697 7.48419 7.16564 7.60543 7.0736C7.73138 6.97798 7.83181 6.8284 8.22434 6.12422L8.58295 5.48092C9.18996 4.39192 9.68663 3.50089 10.155 2.88926Z" fill="#1C274C"/>
</g>
<defs>
<clipPath id="clip0_2_4">
<rect x="-884" y="-396" width="1067.22" height="720.632" rx="40" transform="rotate(-0.301821 -884 -396)" fill="white"/>
</clipPath>
</defs>
</svg>
