<svg width="22" height="23" viewBox="0 0 22 23" fill="none" xmlns="http://www.w3.org/2000/svg">
<path fill-rule="evenodd" clip-rule="evenodd" d="M10.3459 2.80126C9.9522 3.3154 9.50777 4.10867 8.86223 5.26672L8.53453 5.85457C8.51478 5.89001 8.49527 5.92511 8.47596 5.95986C8.17523 6.50107 7.9214 6.95785 7.5124 7.26834C7.09899 7.58218 6.59501 7.69543 6.0093 7.82706C5.97166 7.83552 5.93368 7.84405 5.89537 7.85272L5.25902 7.9967C4.0037 8.28073 3.14971 8.47616 2.56478 8.70667C1.99398 8.93162 1.87349 9.11592 1.82756 9.2636C1.77909 9.41947 1.77765 9.65788 2.11889 10.2C2.46524 10.7501 3.04954 11.4364 3.90407 12.4356L4.33789 12.9429C4.3631 12.9724 4.38809 13.0016 4.41282 13.0304C4.81583 13.5005 5.15186 13.8925 5.306 14.3882C5.45921 14.8809 5.40843 15.3986 5.34686 16.0263C5.34309 16.0648 5.33927 16.1037 5.33546 16.1431L5.26987 16.8199C5.14078 18.1521 5.05374 19.0693 5.08317 19.7301C5.11255 20.3896 5.25185 20.5719 5.3626 20.656C5.46111 20.7308 5.6432 20.8136 6.23643 20.6436C6.8393 20.4708 7.64055 20.1043 8.81597 19.5631L9.41179 19.2887C9.44848 19.2719 9.48482 19.255 9.52085 19.2384C10.0657 18.9865 10.5383 18.768 11.054 18.768C11.5696 18.768 12.0423 18.9865 12.5871 19.2384C12.6231 19.255 12.6595 19.2719 12.6962 19.2887L13.292 19.5631C14.4674 20.1043 15.2686 20.4708 15.8715 20.6436C16.4647 20.8136 16.6468 20.7308 16.7453 20.656C16.8561 20.5719 16.9954 20.3896 17.0248 19.7301C17.0542 19.0693 16.9672 18.1521 16.8381 16.8199L16.7725 16.1431C16.7687 16.1037 16.7649 16.0648 16.7611 16.0263C16.6995 15.3986 16.6487 14.8809 16.8019 14.3882C16.9561 13.8925 17.2921 13.5005 17.6951 13.0304C17.7199 13.0016 17.7448 12.9724 17.7701 12.9429L18.2039 12.4356C19.0584 11.4364 19.6427 10.7501 19.989 10.2C20.3303 9.65788 20.3288 9.41947 20.2804 9.2636C20.2345 9.11592 20.114 8.93162 19.5432 8.70667C18.9582 8.47615 18.1042 8.28073 16.8489 7.9967L16.2126 7.85272C16.1743 7.84405 16.1363 7.83552 16.0986 7.82706C15.5129 7.69543 15.009 7.58218 14.5955 7.26834C14.1865 6.95786 13.9327 6.50107 13.632 5.95986C13.6127 5.92511 13.5932 5.89001 13.5734 5.85457L13.2457 5.26671C12.6002 4.10867 12.1557 3.3154 11.762 2.80125C11.3687 2.2876 11.1677 2.24316 11.054 2.24316C10.9402 2.24316 10.7393 2.2876 10.3459 2.80126ZM9.15502 1.88926C9.6317 1.2668 10.2209 0.743164 11.054 0.743164C11.8871 0.743164 12.4762 1.26679 12.9529 1.88926C13.4213 2.50089 13.918 3.39193 14.525 4.48093L14.8836 5.12422C15.2761 5.8284 15.3766 5.97798 15.5025 6.0736C15.6238 6.16564 15.7802 6.21697 16.5436 6.3897L17.2436 6.54809C18.4192 6.81405 19.3878 7.03315 20.0931 7.31113C20.8253 7.59967 21.4661 8.02496 21.7127 8.81819C21.9568 9.60323 21.6825 10.3255 21.2585 10.9991C20.8465 11.6535 20.1884 12.423 19.3846 13.3629L18.9101 13.9178C18.393 14.5224 18.285 14.6703 18.2343 14.8336C18.1825 15 18.1874 15.1924 18.2655 15.9984L18.337 16.7365C18.4588 17.9925 18.558 19.0168 18.5233 19.7969C18.4879 20.5908 18.3076 21.3533 17.6523 21.8508C16.9848 22.3575 16.2081 22.3004 15.4583 22.0856C14.7313 21.8772 13.825 21.4599 12.7245 20.9531L12.0688 20.6513C11.3515 20.321 11.1979 20.268 11.054 20.268C10.91 20.268 10.7565 20.321 10.0391 20.6513L9.38347 20.9531C8.28293 21.4599 7.37661 21.8772 6.6496 22.0856C5.89983 22.3004 5.12315 22.3575 4.45564 21.8508C3.80036 21.3533 3.62003 20.5908 3.58466 19.7969C3.54991 19.0168 3.64918 17.9925 3.77093 16.7365L3.84245 15.9984C3.92055 15.1924 3.92542 15 3.87366 14.8336C3.82289 14.6703 3.71489 14.5224 3.19789 13.9178L2.7234 13.363C1.91955 12.423 1.26148 11.6535 0.849481 10.9991C0.425449 10.3255 0.151093 9.60323 0.39522 8.81819C0.64189 8.02496 1.28262 7.59967 2.01481 7.31113C2.72017 7.03315 3.6887 6.81405 4.86433 6.54809L4.928 6.53368L5.56435 6.3897C6.32778 6.21697 6.48419 6.16564 6.60543 6.0736C6.73138 5.97798 6.83181 5.8284 7.22434 5.12422L7.58295 4.48092C8.18996 3.39192 8.68663 2.50089 9.15502 1.88926Z" fill="#1C274C"/>
</svg>
