<svg width="25" height="25" viewBox="0 0 25 25" fill="none" xmlns="http://www.w3.org/2000/svg">
<rect width="25" height="25" fill="#F2F2F3"/>
<g clip-path="url(#clip0_2_4)">
<rect x="-323" y="-270" width="1067.22" height="720.632" rx="40" transform="rotate(-0.301821 -323 -270)" fill="white"/>
</g>
<rect x="-19.3316" y="-64.4919" width="63" height="107" rx="4.5" transform="rotate(-0.301821 -19.3316 -64.4919)" stroke="#7C7C7C" stroke-dasharray="10 5"/>
<path fill-rule="evenodd" clip-rule="evenodd" d="M12.2181 3.2898C17.464 3.26217 21.7404 7.49285 21.768 12.7396C21.7957 17.9864 17.564 22.2619 12.3182 22.2895C7.07144 22.3172 2.79594 18.0865 2.76831 12.8397C2.74067 7.59293 6.97135 3.31744 12.2181 3.2898Z" stroke="black" stroke-width="1.5" stroke-linecap="round" stroke-linejoin="round"/>
<path fill-rule="evenodd" clip-rule="evenodd" d="M15.2681 12.7691C15.2639 11.9579 11.0928 9.38498 10.6236 9.85403C10.1545 10.3231 10.135 15.225 10.6546 15.7328C11.1743 16.2425 15.2724 13.5802 15.2681 12.7691Z" stroke="black" stroke-width="1.5" stroke-linecap="round" stroke-linejoin="round"/>
<defs>
<clipPath id="clip0_2_4">
<rect x="-323" y="-270" width="1067.22" height="720.632" rx="40" transform="rotate(-0.301821 -323 -270)" fill="white"/>
</clipPath>
</defs>
</svg>
