<svg width="22" height="16" viewBox="0 0 22 16" fill="none" xmlns="http://www.w3.org/2000/svg">
<path fill-rule="evenodd" clip-rule="evenodd" d="M1.46451 8.07718C1.4682 9.30683 1.42216 10.9843 2.1862 11.6072C2.89887 12.1883 3.39748 12.0349 4.69346 12.1232C5.99038 12.2123 8.74649 16.0088 10.8494 14.7923C11.933 13.9309 12.0044 12.1367 11.9827 8.02177C11.9611 3.90684 11.8707 2.11349 10.7781 1.26359C8.66252 0.0683885 5.94656 3.89458 4.65066 3.99738C3.35568 4.09927 2.85548 3.95122 2.14897 4.53973C1.39154 5.17067 1.45524 6.84756 1.46451 8.07718Z" stroke="black" stroke-width="1.5" stroke-linecap="round" stroke-linejoin="round"/>
<path d="M18.5146 1.89111C21.084 5.54865 21.1179 10.3909 18.5789 14.0825" stroke="black" stroke-width="1.5" stroke-linecap="round" stroke-linejoin="round"/>
<path d="M16.0244 4.31494C17.3478 6.59869 17.3625 9.39608 16.0632 11.6865" stroke="black" stroke-width="1.5" stroke-linecap="round" stroke-linejoin="round"/>
</svg>
