<svg width="18" height="19" viewBox="0 0 18 19" fill="none" xmlns="http://www.w3.org/2000/svg">
<path fill-rule="evenodd" clip-rule="evenodd" d="M11.5002 7.19665L4.71689 14.0523C4.5391 13.9506 4.37085 13.8862 4.22154 13.8776C2.92437 13.7912 2.42141 13.9431 1.70924 13.3404C0.940855 12.6914 0.987636 10.9465 0.980903 9.66842C0.97417 8.3903 0.909009 6.64602 1.67051 5.98893C2.3763 5.37879 2.88088 5.53474 4.17701 5.42529C5.47315 5.31583 8.19493 1.34575 10.3191 2.58473C11.181 3.27991 11.4211 4.58478 11.5002 7.19665Z" stroke="black" stroke-width="1.5" stroke-linecap="round" stroke-linejoin="round"/>
<path d="M11.5236 11.6468C11.5014 14.5205 11.2849 15.921 10.3932 16.6534C9.41672 17.237 8.30381 16.7111 7.25503 15.9609" stroke="black" stroke-width="1.5" stroke-linecap="round" stroke-linejoin="round"/>
<path d="M1.02423 17.7849L4.71745 14.0523L11.5007 7.19665L16.9385 1.70088" stroke="black" stroke-width="1.5" stroke-linecap="round" stroke-linejoin="round"/>
</svg>
