<svg width="18" height="17" viewBox="0 0 18 17" fill="none" xmlns="http://www.w3.org/2000/svg">
<path fill-rule="evenodd" clip-rule="evenodd" d="M1.06485 8.68509C1.06854 9.91474 1.02251 11.5922 1.78654 12.2151C2.49921 12.7962 2.99782 12.6429 4.2938 12.7311C5.59072 12.8202 8.34683 16.6167 10.4497 15.4002C11.5333 14.5388 11.6048 12.7446 11.5831 8.62968C11.5614 4.51475 11.471 2.7214 10.3784 1.8715C8.26286 0.676299 5.5469 4.50249 4.251 4.60529C2.95602 4.70718 2.45582 4.55913 1.74931 5.14764C0.99188 5.77858 1.05559 7.45547 1.06485 8.68509Z" stroke="black" stroke-width="1.5" stroke-linecap="round" stroke-linejoin="round"/>
<path d="M15.6248 4.92285C16.9481 7.2066 16.9628 10.004 15.6636 12.2944" stroke="black" stroke-width="1.5" stroke-linecap="round" stroke-linejoin="round"/>
</svg>
