<svg width="25" height="25" viewBox="0 0 25 25" fill="none" xmlns="http://www.w3.org/2000/svg">
<path fill-rule="evenodd" clip-rule="evenodd" d="M2.41963 16.2839L2.37659 8.11402C2.358 4.58407 4.61643 2.19214 8.00538 2.17429L16.6753 2.12861C20.0652 2.11076 22.3577 4.47871 22.3763 8.00866L22.4194 16.1786C22.438 19.7185 20.1706 22.1105 16.7806 22.1283L8.11074 22.174C4.72178 22.1919 2.43828 19.8239 2.41963 16.2839ZM13.1599 14.4173L13.1265 8.06739C13.1243 7.6474 12.7825 7.31919 12.3726 7.32135C11.9526 7.32356 11.6243 7.6553 11.6265 8.07529L11.66 14.4252L9.17694 11.9583C9.0362 11.819 8.83578 11.74 8.64578 11.741C8.45679 11.742 8.26621 11.823 8.11695 11.9638C7.82848 12.2554 7.83101 12.7354 8.12253 13.0238L11.8923 16.774C12.1738 17.0525 12.6738 17.0499 12.9523 16.7684L16.6824 12.9787C16.9709 12.6872 16.9684 12.2072 16.6768 11.9187C16.3753 11.6303 15.9053 11.6328 15.6068 11.9244L13.1599 14.4173Z" fill="black"/>
</svg>
