<svg width="25" height="25" viewBox="0 0 25 25" fill="none" xmlns="http://www.w3.org/2000/svg">
<rect width="25" height="25" fill="#F2F2F3"/>
<g clip-path="url(#clip0_2_4)">
<rect x="-690" y="-220" width="1067.22" height="720.632" rx="40" transform="rotate(-0.301821 -690 -220)" fill="white"/>
<rect width="350.654" height="428.023" transform="translate(-35.937 -51.0898) rotate(-0.301821)" fill="white"/>
<rect x="-19.2659" y="-18.6774" width="63" height="107" rx="4.5" transform="rotate(-0.301821 -19.2659 -18.6774)" stroke="#7C7C7C" stroke-dasharray="10 5"/>
<path fill-rule="evenodd" clip-rule="evenodd" d="M16.5321 22.6345L8.3622 22.6776C4.83225 22.6962 2.44032 20.4377 2.42246 17.0488L2.37679 8.37891C2.35893 4.98895 4.72689 2.69645 8.25684 2.67785L16.4267 2.63481C19.9667 2.61617 22.3587 4.8836 22.3765 8.27355L22.4222 16.9434C22.44 20.3324 20.072 22.6159 16.5321 22.6345ZM14.6655 11.8942L8.31557 11.9277C7.89557 11.9299 7.56737 12.2716 7.56953 12.6816C7.57174 13.1016 7.90348 13.4299 8.32347 13.4277L14.6734 13.3942L12.2064 15.8772C12.0672 16.018 11.9882 16.2184 11.9892 16.4084C11.9902 16.5974 12.0712 16.788 12.212 16.9372C12.5035 17.2257 12.9835 17.2232 13.272 16.9316L17.0222 13.1618C17.3007 12.8804 17.2981 12.3804 17.0166 12.1018L13.2269 8.37175C12.9354 8.08328 12.4554 8.08581 12.1669 8.37733C11.8785 8.67886 11.881 9.14885 12.1726 9.44732L14.6655 11.8942Z" fill="black"/>
</g>
<defs>
<clipPath id="clip0_2_4">
<rect x="-690" y="-220" width="1067.22" height="720.632" rx="40" transform="rotate(-0.301821 -690 -220)" fill="white"/>
</clipPath>
</defs>
</svg>
