<svg width="25" height="25" viewBox="0 0 25 25" fill="none" xmlns="http://www.w3.org/2000/svg">
<rect width="25" height="25" fill="#F2F2F3"/>
<g clip-path="url(#clip0_2_4)">
<rect x="-324" y="-488" width="1067.22" height="720.632" rx="40" transform="rotate(-0.301821 -324 -488)" fill="white"/>
</g>
<rect x="-18.941" y="-18.4953" width="63" height="107" rx="4.5" transform="rotate(-0.301821 -18.941 -18.4953)" stroke="#7C7C7C" stroke-dasharray="10 5"/>
<path fill-rule="evenodd" clip-rule="evenodd" d="M14.0497 6.74138C13.9968 6.25531 13.9417 5.751 13.8101 5.24817C13.4524 4.04545 12.4754 3.29907 11.432 3.30457C10.8501 3.30548 10.1159 3.66794 9.70043 4.03301L6.25642 6.94884L4.44552 6.95838C3.11277 6.9654 2.04653 7.99847 1.85197 9.48215C1.6875 10.9066 1.65971 13.594 1.88187 15.1593C2.07572 16.7247 3.10447 17.7317 4.50223 17.7243L6.31314 17.7148L9.85501 20.6367C10.2184 20.9494 10.8589 21.3067 11.4461 21.3036C11.4839 21.3045 11.5174 21.3043 11.551 21.3042C12.6142 21.2986 13.5465 20.5142 13.8915 19.311C14.0211 18.8024 14.065 18.3261 14.1074 17.8658L14.1082 17.8573L14.153 17.3986C14.3255 15.9107 14.2873 8.65867 14.0992 7.18344L14.0497 6.74138ZM18.0993 6.76406C17.8087 6.34044 17.2367 6.23717 16.8198 6.53461C16.4072 6.83417 16.3075 7.42089 16.5981 7.84344C17.4065 9.02123 17.8563 10.5928 17.8651 12.2708C17.874 13.9477 17.4408 15.525 16.6449 16.7113C16.3587 17.1368 16.4646 17.7225 16.8814 18.0177C17.0372 18.1264 17.2189 18.1834 17.4055 18.1824C17.7065 18.1808 17.9867 18.028 18.1573 17.7748C19.1624 16.2771 19.711 14.3192 19.7001 12.2611C19.6893 10.2031 19.1201 8.25101 18.0993 6.76406ZM19.9655 3.48067C20.3813 3.18216 20.9555 3.28757 21.244 3.71013C22.8248 6.01115 23.7048 9.04162 23.7217 12.2398C23.7385 15.4402 22.8905 18.4787 21.334 20.7962C21.1644 21.0494 20.8831 21.2023 20.5822 21.2039C20.3955 21.2049 20.2148 21.1478 20.0591 21.0392C19.6423 20.744 19.5364 20.1594 19.8215 19.7327C21.1678 17.7266 21.9015 15.0687 21.8866 12.2495C21.8718 9.43134 21.1102 6.78138 19.7428 4.78951C19.4532 4.36695 19.5529 3.78024 19.9655 3.48067Z" fill="black"/>
<defs>
<clipPath id="clip0_2_4">
<rect x="-324" y="-488" width="1067.22" height="720.632" rx="40" transform="rotate(-0.301821 -324 -488)" fill="white"/>
</clipPath>
</defs>
</svg>
