<svg width="21" height="21" viewBox="0 0 21 21" fill="none" xmlns="http://www.w3.org/2000/svg">
<path fill-rule="evenodd" clip-rule="evenodd" d="M10.1423 0.335938C6.3711 0.335938 4.48548 0.335938 3.31391 1.50751C2.25081 2.5706 2.15238 4.22163 2.14326 7.33594H1.14233C0.590049 7.33594 0.142334 7.78365 0.142334 8.33594V9.33594C0.142334 9.65069 0.290528 9.94708 0.542334 10.1359L2.14233 11.3359C2.15145 14.4502 2.25081 16.1013 3.31391 17.1644C3.55609 17.4065 3.82878 17.5987 4.14233 17.7511V19.3358C4.14233 19.8881 4.59005 20.3358 5.14233 20.3358H6.64233C7.19462 20.3358 7.64233 19.8881 7.64233 19.3358V18.3175C8.3694 18.3359 9.19657 18.3359 10.1423 18.3359C11.0881 18.3359 11.9153 18.3359 12.6423 18.3175V19.3358C12.6423 19.8881 13.09 20.3358 13.6423 20.3358H15.1423C15.6946 20.3358 16.1423 19.8881 16.1423 19.3358V17.7511C16.4559 17.5987 16.7286 17.4065 16.9708 17.1644C18.0339 16.1013 18.1332 14.4502 18.1423 11.3359L19.7423 10.1359C19.9941 9.94708 20.1423 9.65069 20.1423 9.33594V8.33594C20.1423 7.78365 19.6946 7.33594 19.1423 7.33594H18.1414C18.1323 4.22163 18.0339 2.5706 16.9708 1.50751C15.7992 0.335938 13.9136 0.335938 10.1423 0.335938ZM3.64233 7.83594C3.64233 9.25015 3.64233 9.95726 4.08167 10.3966C4.52101 10.8359 5.22812 10.8359 6.64233 10.8359H10.1423H13.6423C15.0565 10.8359 15.7637 10.8359 16.203 10.3966C16.6423 9.95726 16.6423 9.25015 16.6423 7.83594V5.33594C16.6423 3.92172 16.6423 3.21462 16.203 2.77528C15.7637 2.33594 15.0565 2.33594 13.6423 2.33594H10.1423H6.64233C5.22812 2.33594 4.52101 2.33594 4.08167 2.77528C3.64233 3.21462 3.64233 3.92172 3.64233 5.33594V7.83594ZM4.39233 14.3359C4.39233 13.9217 4.72812 13.5859 5.14233 13.5859H6.64233C7.05655 13.5859 7.39233 13.9217 7.39233 14.3359C7.39233 14.7502 7.05655 15.0859 6.64233 15.0859H5.14233C4.72812 15.0859 4.39233 14.7502 4.39233 14.3359ZM15.8923 14.3359C15.8923 13.9217 15.5565 13.5859 15.1423 13.5859H13.6423C13.2281 13.5859 12.8923 13.9217 12.8923 14.3359C12.8923 14.7502 13.2281 15.0859 13.6423 15.0859H15.1423C15.5565 15.0859 15.8923 14.7502 15.8923 14.3359Z" fill="#1C274C"/>
</svg>
