<svg width="26" height="25" viewBox="0 0 26 25" fill="none" xmlns="http://www.w3.org/2000/svg">
<rect width="26" height="25" fill="#F2F2F3"/>
<g clip-path="url(#clip0_2_4)">
<rect x="-131" y="-358" width="1067.22" height="720.632" rx="40" transform="rotate(-0.301821 -131 -358)" fill="white"/>
</g>
<rect x="-18.6336" y="-19.4821" width="63" height="107" rx="4.5" transform="rotate(-0.301821 -18.6336 -19.4821)" stroke="#7C7C7C" stroke-dasharray="10 5"/>
<path fill-rule="evenodd" clip-rule="evenodd" d="M8.62623 3.64751C6.04926 3.66108 4.39359 5.43683 4.40795 8.16279L4.45122 16.3767C4.45525 17.1417 4.60085 17.8239 4.84696 18.4136C4.85739 18.401 5.08477 18.121 5.38139 17.7556C5.96111 17.0415 6.80533 16.0016 6.81125 15.9962C7.49908 15.2026 8.79186 14.0178 10.5006 14.7218C10.875 14.8747 11.2082 15.0852 11.515 15.2789C11.5448 15.2978 11.5745 15.3165 11.6038 15.335C12.1788 15.715 12.5168 15.8932 12.8666 15.8613C13.0115 15.8406 13.1473 15.7969 13.2759 15.7162C13.7609 15.4136 15.0131 13.6194 15.3881 13.0821C15.4431 13.0033 15.4792 12.9515 15.4912 12.9355C16.5738 11.5098 18.2517 11.1209 19.6561 11.9535C19.8447 12.0645 21.1967 12.9984 21.6446 13.3741L21.6167 8.07214C21.6024 5.34618 19.9281 3.58797 17.3421 3.60159L8.62623 3.64751ZM17.3348 2.20661C20.7117 2.18882 22.9931 4.53884 23.0117 8.06479L23.055 16.2787C23.0554 16.3674 23.0466 16.4506 23.0377 16.5337C23.0315 16.5922 23.0252 16.6506 23.0222 16.7109C23.0203 16.7473 23.0194 16.7837 23.0186 16.8202C23.0175 16.8687 23.0163 16.9173 23.0126 16.9659C23.0107 16.9849 23.007 17.0032 23.0034 17.0215C22.9997 17.0397 22.9961 17.058 22.9942 17.077C22.9628 17.3912 22.9134 17.6914 22.8439 17.9828C22.8275 18.0556 22.8085 18.1258 22.7893 18.1967L22.7851 18.2121C22.7066 18.4945 22.6141 18.764 22.5024 19.0216C22.4828 19.0649 22.4622 19.1072 22.4415 19.1494C22.4277 19.1776 22.414 19.2057 22.4005 19.2342C22.2798 19.4798 22.1491 19.7155 21.9972 19.9343C21.9691 19.9748 21.9392 20.0128 21.9092 20.0508C21.8894 20.076 21.8696 20.1011 21.8502 20.1271C21.6923 20.3339 21.5273 20.5318 21.3403 20.7118C21.3029 20.7477 21.2625 20.7805 21.2222 20.8134C21.1969 20.834 21.1717 20.8545 21.1472 20.8758C20.955 21.0428 20.7589 21.2028 20.5426 21.34C20.4954 21.37 20.4452 21.3952 20.3952 21.4203C20.3629 21.4366 20.3306 21.4528 20.2993 21.4703C20.0789 21.5934 19.8566 21.7136 19.614 21.8069C19.5557 21.8294 19.4936 21.8458 19.4313 21.8622C19.387 21.8739 19.3427 21.8856 19.2995 21.8995C19.2779 21.9064 19.2563 21.9132 19.2348 21.92C19.0181 21.9887 18.8021 22.0571 18.5686 22.0984C18.4333 22.1228 18.2896 22.1327 18.1459 22.1426C18.0837 22.1469 18.0214 22.1511 17.9599 22.1566C17.8936 22.1619 17.8288 22.1702 17.7638 22.1786C17.6581 22.1921 17.5522 22.2057 17.4401 22.2063L8.72423 22.2522C8.34824 22.2542 7.98904 22.2181 7.64175 22.163C7.62874 22.161 7.61673 22.1591 7.60472 22.1571C6.25051 21.9313 5.12408 21.2842 4.33191 20.3034C4.32644 20.3034 4.32427 20.2997 4.32139 20.2948C4.31952 20.2916 4.31736 20.288 4.31381 20.2845C3.51757 19.2926 3.06352 17.956 3.05524 16.384L3.01197 8.17014C2.9934 4.64419 5.25193 2.27026 8.61888 2.25253L17.3348 2.20661ZM12.0157 8.74928C12.0229 10.1042 10.8951 11.2403 9.53372 11.2474C8.33703 11.2537 7.31209 10.3848 7.07745 9.25397C7.03876 9.08432 7.01652 8.90976 7.01557 8.7293C7.00839 7.36472 8.11108 6.25486 9.48122 6.24764C10.1789 6.24396 10.8122 6.53401 11.2672 6.99968C11.724 7.44893 12.0122 8.06989 12.0157 8.74928Z" fill="black"/>
<defs>
<clipPath id="clip0_2_4">
<rect x="-131" y="-358" width="1067.22" height="720.632" rx="40" transform="rotate(-0.301821 -131 -358)" fill="white"/>
</clipPath>
</defs>
</svg>
