<svg width="21" height="16" viewBox="0 0 21 16" fill="none" xmlns="http://www.w3.org/2000/svg">
<path fill-rule="evenodd" clip-rule="evenodd" d="M4.22675 0.835267L10.0187 0.804756C12.4407 0.791998 14.1405 2.4521 14.1531 4.84395L14.1893 11.722C14.2019 14.1139 12.5197 15.7918 10.0977 15.8045L4.30577 15.8351C1.88378 15.8478 0.183994 14.1877 0.171394 11.7959L0.135161 4.91779C0.122562 2.52595 1.80476 0.848026 4.22675 0.835267ZM18.084 3.14129C18.5219 2.91563 19.037 2.93626 19.4574 3.19801C19.8777 3.45875 20.1302 3.91428 20.1328 4.41376L20.1732 12.0898C20.1759 12.5903 19.9283 13.0474 19.5106 13.3126C19.2824 13.4569 19.0268 13.5314 18.7688 13.5327C18.5538 13.5339 18.3385 13.4843 18.137 13.3828L16.6521 12.6434C16.1026 12.3681 15.7596 11.8115 15.7564 11.1912L15.7257 5.3578C15.7224 4.73649 16.0594 4.17633 16.606 3.89731L18.084 3.14129Z" fill="black"/>
</svg>
