<svg width="25" height="25" viewBox="0 0 25 25" fill="none" xmlns="http://www.w3.org/2000/svg">
<rect width="25" height="25" fill="#F2F2F3"/>
<g clip-path="url(#clip0_2_4)">
<rect x="-882" y="-475" width="1067.22" height="720.632" rx="40" transform="rotate(-0.301821 -882 -475)" fill="white"/>
<rect width="350.654" height="428.023" transform="translate(-227.937 -306.09) rotate(-0.301821)" fill="white"/>
<rect x="-18.7963" y="-18.6626" width="61" height="106" rx="4.5" stroke="#7C7C7C" stroke-dasharray="10 5"/>
<path d="M2.70374 7.3374C2.70374 5.21608 2.70374 4.15542 3.36275 3.49641C4.02175 2.8374 5.08242 2.8374 7.20374 2.8374C9.32506 2.8374 10.3857 2.8374 11.0447 3.49641C11.7037 4.15542 11.7037 5.21608 11.7037 7.3374C11.7037 9.45872 11.7037 10.5194 11.0447 11.1784C10.3857 11.8374 9.32506 11.8374 7.20374 11.8374C5.08242 11.8374 4.02175 11.8374 3.36275 11.1784C2.70374 10.5194 2.70374 9.45872 2.70374 7.3374Z" fill="#1C274C"/>
<path d="M13.7037 18.3374C13.7037 16.2161 13.7037 15.1554 14.3627 14.4964C15.0218 13.8374 16.0824 13.8374 18.2037 13.8374C20.3251 13.8374 21.3857 13.8374 22.0447 14.4964C22.7037 15.1554 22.7037 16.2161 22.7037 18.3374C22.7037 20.4587 22.7037 21.5194 22.0447 22.1784C21.3857 22.8374 20.3251 22.8374 18.2037 22.8374C16.0824 22.8374 15.0218 22.8374 14.3627 22.1784C13.7037 21.5194 13.7037 20.4587 13.7037 18.3374Z" fill="#1C274C"/>
<path d="M2.70374 18.3374C2.70374 16.2161 2.70374 15.1554 3.36275 14.4964C4.02175 13.8374 5.08242 13.8374 7.20374 13.8374C9.32506 13.8374 10.3857 13.8374 11.0447 14.4964C11.7037 15.1554 11.7037 16.2161 11.7037 18.3374C11.7037 20.4587 11.7037 21.5194 11.0447 22.1784C10.3857 22.8374 9.32506 22.8374 7.20374 22.8374C5.08242 22.8374 4.02175 22.8374 3.36275 22.1784C2.70374 21.5194 2.70374 20.4587 2.70374 18.3374Z" fill="#1C274C"/>
<path d="M13.7037 7.3374C13.7037 5.21608 13.7037 4.15542 14.3627 3.49641C15.0218 2.8374 16.0824 2.8374 18.2037 2.8374C20.3251 2.8374 21.3857 2.8374 22.0447 3.49641C22.7037 4.15542 22.7037 5.21608 22.7037 7.3374C22.7037 9.45872 22.7037 10.5194 22.0447 11.1784C21.3857 11.8374 20.3251 11.8374 18.2037 11.8374C16.0824 11.8374 15.0218 11.8374 14.3627 11.1784C13.7037 10.5194 13.7037 9.45872 13.7037 7.3374Z" fill="#1C274C"/>
</g>
<defs>
<clipPath id="clip0_2_4">
<rect x="-882" y="-475" width="1067.22" height="720.632" rx="40" transform="rotate(-0.301821 -882 -475)" fill="white"/>
</clipPath>
</defs>
</svg>
