<svg width="25" height="25" viewBox="0 0 25 25" fill="none" xmlns="http://www.w3.org/2000/svg">
<rect width="25" height="25" fill="#F2F2F3"/>
<g clip-path="url(#clip0_2_4)">
<rect x="-421" y="-488" width="1067.22" height="720.632" rx="40" transform="rotate(-0.301821 -421 -488)" fill="white"/>
</g>
<rect x="-19.9424" y="-19.0012" width="63" height="107" rx="4.5" transform="rotate(-0.301821 -19.9424 -19.0012)" stroke="#7C7C7C" stroke-dasharray="10 5"/>
<path fill-rule="evenodd" clip-rule="evenodd" d="M15.1653 5.58256C15.2971 6.08539 15.3522 6.5897 15.4052 7.07577L15.4548 7.51784C15.6431 8.99307 15.6813 16.2451 15.5086 17.733L15.4638 18.1917L15.463 18.2002C15.4205 18.6605 15.3766 19.1368 15.2467 19.6454C14.9014 20.8486 13.968 21.633 12.9035 21.6386C12.8699 21.6388 12.8363 21.6389 12.7985 21.6381C12.2106 21.6412 11.5694 21.2838 11.2055 20.9711L7.65954 18.0492L5.84652 18.0587C4.44712 18.0661 3.41717 17.0591 3.22311 15.4937C3.00069 13.9285 3.02853 11.2411 3.1932 9.81663C3.388 8.33294 4.4555 7.29986 5.78981 7.29283L7.60283 7.28328L11.0509 4.36743C11.4668 4.00236 12.2019 3.6399 12.7845 3.63898C13.8291 3.63348 14.8073 4.37985 15.1653 5.58256ZM18.1802 6.86898C18.5975 6.57368 19.1713 6.67587 19.4601 7.09843C20.4821 8.58644 21.0519 10.5385 21.0628 12.5955C21.0736 14.6525 20.5244 16.6104 19.5181 18.1091C19.3473 18.3623 19.0667 18.5152 18.7654 18.5168C18.5775 18.5178 18.3956 18.4607 18.2407 18.352C17.8234 18.0579 17.7174 17.4723 18.0039 17.0456C18.8008 15.8583 19.2344 14.281 19.2256 12.6052C19.2168 10.9282 18.7665 9.35667 17.9572 8.17781C17.6662 7.7542 17.766 7.16748 18.1802 6.86898Z" fill="black"/>
<defs>
<clipPath id="clip0_2_4">
<rect x="-421" y="-488" width="1067.22" height="720.632" rx="40" transform="rotate(-0.301821 -421 -488)" fill="white"/>
</clipPath>
</defs>
</svg>
