<svg width="25" height="25" viewBox="0 0 25 25" fill="none" xmlns="http://www.w3.org/2000/svg">
<rect width="25" height="25" fill="#F2F2F3"/>
<g clip-path="url(#clip0_2_4)">
<rect x="-788" y="-476" width="1067.22" height="720.632" rx="40" transform="rotate(-0.301821 -788 -476)" fill="white"/>
<rect width="350.654" height="428.023" transform="translate(-133.937 -307.09) rotate(-0.301821)" fill="white"/>
<rect x="-19.3577" y="-19.1641" width="61" height="106" rx="4.5" stroke="#7C7C7C" stroke-dasharray="10 5"/>
<path fill-rule="evenodd" clip-rule="evenodd" d="M12.1423 2.33594C8.3711 2.33594 6.48548 2.33594 5.31391 3.50751C4.25081 4.5706 4.15238 6.22163 4.14326 9.33594H3.14233C2.59005 9.33594 2.14233 9.78365 2.14233 10.3359V11.3359C2.14233 11.6507 2.29053 11.9471 2.54233 12.1359L4.14233 13.3359C4.15145 16.4502 4.25081 18.1013 5.31391 19.1644C5.55609 19.4065 5.82878 19.5987 6.14233 19.7511V21.3358C6.14233 21.8881 6.59005 22.3358 7.14233 22.3358H8.64233C9.19462 22.3358 9.64233 21.8881 9.64233 21.3358V20.3175C10.3694 20.3359 11.1966 20.3359 12.1423 20.3359C13.0881 20.3359 13.9153 20.3359 14.6423 20.3175V21.3358C14.6423 21.8881 15.09 22.3358 15.6423 22.3358H17.1423C17.6946 22.3358 18.1423 21.8881 18.1423 21.3358V19.7511C18.4559 19.5987 18.7286 19.4065 18.9708 19.1644C20.0339 18.1013 20.1332 16.4502 20.1423 13.3359L21.7423 12.1359C21.9941 11.9471 22.1423 11.6507 22.1423 11.3359V10.3359C22.1423 9.78365 21.6946 9.33594 21.1423 9.33594H20.1414C20.1323 6.22163 20.0339 4.5706 18.9708 3.50751C17.7992 2.33594 15.9136 2.33594 12.1423 2.33594ZM5.64233 9.83594C5.64233 11.2502 5.64233 11.9573 6.08167 12.3966C6.52101 12.8359 7.22812 12.8359 8.64233 12.8359H12.1423H15.6423C17.0565 12.8359 17.7637 12.8359 18.203 12.3966C18.6423 11.9573 18.6423 11.2502 18.6423 9.83594V7.33594C18.6423 5.92172 18.6423 5.21462 18.203 4.77528C17.7637 4.33594 17.0565 4.33594 15.6423 4.33594H12.1423H8.64233C7.22812 4.33594 6.52101 4.33594 6.08167 4.77528C5.64233 5.21462 5.64233 5.92172 5.64233 7.33594V9.83594ZM6.39233 16.3359C6.39233 15.9217 6.72812 15.5859 7.14233 15.5859H8.64233C9.05655 15.5859 9.39233 15.9217 9.39233 16.3359C9.39233 16.7502 9.05655 17.0859 8.64233 17.0859H7.14233C6.72812 17.0859 6.39233 16.7502 6.39233 16.3359ZM17.8923 16.3359C17.8923 15.9217 17.5565 15.5859 17.1423 15.5859H15.6423C15.2281 15.5859 14.8923 15.9217 14.8923 16.3359C14.8923 16.7502 15.2281 17.0859 15.6423 17.0859H17.1423C17.5565 17.0859 17.8923 16.7502 17.8923 16.3359Z" fill="#1C274C"/>
</g>
<defs>
<clipPath id="clip0_2_4">
<rect x="-788" y="-476" width="1067.22" height="720.632" rx="40" transform="rotate(-0.301821 -788 -476)" fill="white"/>
</clipPath>
</defs>
</svg>
