<svg width="25" height="25" viewBox="0 0 25 25" fill="none" xmlns="http://www.w3.org/2000/svg">
<path fill-rule="evenodd" clip-rule="evenodd" d="M17.3592 0.922907C18.1164 0.918918 18.873 1.02735 19.5931 1.27746C24.0302 2.76988 25.6531 7.87715 24.3435 12.3556C23.5995 14.6446 22.3746 16.7366 20.7648 18.4491C18.4601 20.8233 15.9284 22.9335 13.2008 24.7542L12.9018 24.9465L12.5887 24.7448C9.83253 22.9656 7.26435 20.8823 4.91309 18.5199C3.29616 16.8244 2.04807 14.7582 1.26805 12.4772C-0.111471 8.01287 1.45754 2.88879 5.92651 1.32292C6.27383 1.19478 6.63216 1.10447 6.99189 1.05331L7.13589 1.05255C7.47281 0.998987 7.80747 0.973223 8.14346 0.971454L8.27546 0.970758C9.03157 0.990775 9.76428 1.12586 10.4748 1.37602L10.5456 1.37564C10.5937 1.39939 10.6299 1.42573 10.654 1.4496C10.9197 1.53788 11.171 1.63761 11.4117 1.77529L11.8688 1.98762C11.9793 2.0489 12.1035 2.14277 12.2108 2.22389C12.2788 2.27529 12.34 2.32157 12.3867 2.35121C12.4064 2.36327 12.4264 2.37539 12.4465 2.38762C12.5497 2.4503 12.6572 2.51559 12.748 2.58805C14.0755 1.50863 15.6912 0.919062 17.3592 0.922907ZM20.5995 10.0006C21.0915 9.98414 21.5093 9.56636 21.5425 9.03439L21.5417 8.88408C21.5683 7.11425 20.5411 5.5167 18.9887 4.90593C18.4958 4.73042 17.9573 5.01242 17.7801 5.54388C17.6149 6.07528 17.8819 6.65493 18.3869 6.84048C19.1577 7.13958 19.6767 7.9339 19.6813 8.81683L19.6815 8.85599C19.6602 9.14536 19.7445 9.42408 19.9136 9.63792C20.0828 9.85177 20.3354 9.97549 20.5995 10.0006Z" fill="black"/>
</svg>
