<svg width="20" height="21" viewBox="0 0 20 21" fill="none" xmlns="http://www.w3.org/2000/svg">
<path d="M7.51751 19.6415L7.50141 16.5838C7.4973 15.8032 8.13135 15.1671 8.9176 15.163L11.7917 15.1478C12.1693 15.1458 12.5322 15.2928 12.8006 15.5565C13.069 15.8201 13.2208 16.1788 13.2228 16.5536L13.2389 19.6113C13.2382 19.9358 13.3681 20.2472 13.5996 20.4763C13.8311 20.7053 14.1452 20.8332 14.472 20.8315L16.4329 20.8212C17.3487 20.8187 18.2259 20.4546 18.8709 19.8091C19.516 19.1637 19.8758 18.29 19.871 17.3808L19.8251 8.66998C19.8212 7.93559 19.4896 7.24071 18.9197 6.77254L12.2214 1.51895C11.0561 0.597767 9.39376 0.636464 8.27316 1.61086L1.78235 6.86281C1.1905 7.32322 0.838997 8.02376 0.825376 8.77007L0.871216 17.472C0.881198 19.3669 2.43665 20.8949 4.34542 20.8848L6.26151 20.8747C6.94043 20.8712 7.48933 20.3245 7.4907 19.6505L7.51751 19.6415Z" fill="black"/>
</svg>
