<svg width="25" height="25" viewBox="0 0 25 25" fill="none" xmlns="http://www.w3.org/2000/svg">
<rect width="25" height="25" fill="#F2F2F3"/>
<g clip-path="url(#clip0_2_4)">
<rect x="-131" y="-225" width="1067.22" height="720.632" rx="40" transform="rotate(-0.301821 -131 -225)" fill="white"/>
</g>
<rect x="-19.3289" y="-18.4807" width="63" height="107" rx="4.5" transform="rotate(-0.301821 -19.3289 -18.4807)" stroke="#7C7C7C" stroke-dasharray="10 5"/>
<path d="M9.51751 21.6415L9.50141 18.5838C9.4973 17.8032 10.1313 17.1671 10.9176 17.163L13.7917 17.1478C14.1693 17.1458 14.5322 17.2928 14.8006 17.5565C15.069 17.8201 15.2208 18.1788 15.2228 18.5536L15.2389 21.6113C15.2382 21.9358 15.3681 22.2472 15.5996 22.4763C15.8311 22.7053 16.1452 22.8332 16.472 22.8315L18.4329 22.8212C19.3487 22.8187 20.2259 22.4546 20.8709 21.8091C21.516 21.1637 21.8758 20.29 21.871 19.3808L21.8251 10.67C21.8212 9.93559 21.4896 9.24071 20.9197 8.77254L14.2214 3.51895C13.0561 2.59777 11.3938 2.63646 10.2732 3.61086L3.78235 8.86281C3.1905 9.32322 2.839 10.0238 2.82538 10.7701L2.87122 19.472C2.8812 21.3669 4.43665 22.8949 6.34542 22.8848L8.26151 22.8747C8.94043 22.8712 9.48933 22.3245 9.4907 21.6505L9.51751 21.6415Z" fill="black"/>
<defs>
<clipPath id="clip0_2_4">
<rect x="-131" y="-225" width="1067.22" height="720.632" rx="40" transform="rotate(-0.301821 -131 -225)" fill="white"/>
</clipPath>
</defs>
</svg>
