<svg width="25" height="25" viewBox="0 0 25 25" fill="none" xmlns="http://www.w3.org/2000/svg">
<rect width="25" height="25" fill="#F2F2F3"/>
<g clip-path="url(#clip0_2_4)">
<rect x="-228" y="-487" width="1067.22" height="720.632" rx="40" transform="rotate(-0.301821 -228 -487)" fill="white"/>
</g>
<rect x="-18.9398" y="-16.9899" width="63" height="107" rx="4.5" transform="rotate(-0.301821 -18.9398 -16.9899)" stroke="#7C7C7C" stroke-dasharray="10 5"/>
<path fill-rule="evenodd" clip-rule="evenodd" d="M21.0893 3.57068C21.4473 3.2089 22.0211 3.20376 22.3967 3.56273C22.7617 3.92388 22.7648 4.51028 22.4046 4.87419L5.34648 22.112C5.17694 22.2834 4.93187 22.3852 4.69262 22.3865C4.45867 22.3877 4.22739 22.2937 4.04017 22.1221C3.67401 21.7461 3.67098 21.1714 4.03007 20.8085L6.84168 17.9675L6.8131 17.9676C5.40408 17.9751 4.37305 16.9855 4.17435 15.4411C3.95343 13.8968 3.98184 11.2504 4.14486 9.84168C4.33724 8.37991 5.41279 7.36972 6.75723 7.36263L8.58758 7.35299L12.0659 4.47667C12.4886 4.11455 13.2384 3.77081 13.8195 3.75823C14.8781 3.75265 15.8559 4.4874 16.2115 5.67107C16.3518 6.16889 16.4084 6.66504 16.4532 7.14219L16.5404 7.81813C16.5547 7.92179 16.568 8.02122 16.5791 8.12701L21.0893 3.57068ZM15.6052 14.0603C15.7474 13.9198 16.0665 13.8176 16.2107 13.8538C16.5997 13.9502 16.6789 14.5077 16.6749 14.9459C16.6636 16.2183 16.6259 17.1034 16.561 17.651L16.5157 18.1022L16.515 18.1105C16.4721 18.5644 16.4277 19.034 16.2957 19.5355C15.9494 20.7208 15.0081 21.4942 13.9336 21.4999C13.8987 21.5 13.8637 21.5002 13.8277 21.4994C13.2339 21.5025 12.5884 21.1502 12.2215 20.842L10.9152 19.8422C10.4189 19.4776 10.5619 18.8904 10.8374 18.5491C11.0432 18.2951 13.5206 15.9968 14.8217 14.7896C15.2629 14.3802 15.5689 14.0964 15.6052 14.0603Z" fill="black"/>
<defs>
<clipPath id="clip0_2_4">
<rect x="-228" y="-487" width="1067.22" height="720.632" rx="40" transform="rotate(-0.301821 -228 -487)" fill="white"/>
</clipPath>
</defs>
</svg>
