<svg width="25" height="24" viewBox="0 0 25 24" fill="none" xmlns="http://www.w3.org/2000/svg">
<rect width="25" height="24" fill="#F2F2F3"/>
<g clip-path="url(#clip0_2_4)">
<rect x="-324" y="-357" width="1067.22" height="720.632" rx="40" transform="rotate(-0.301821 -324 -357)" fill="white"/>
</g>
<rect x="-18.5178" y="-19.4971" width="62" height="106" rx="4.5" stroke="#7C7C7C" stroke-dasharray="10 5"/>
<path fill-rule="evenodd" clip-rule="evenodd" d="M12.9822 22.0029C18.505 22.0029 22.9822 17.5258 22.9822 12.0029C22.9822 6.48008 18.505 2.00293 12.9822 2.00293C7.45933 2.00293 2.98218 6.48008 2.98218 12.0029C2.98218 17.5258 7.45933 22.0029 12.9822 22.0029ZM13.7322 9.00293C13.7322 8.58872 13.3964 8.25293 12.9822 8.25293C12.568 8.25293 12.2322 8.58872 12.2322 9.00293L12.2322 11.253H9.98218C9.56796 11.253 9.23218 11.5887 9.23218 12.003C9.23218 12.4172 9.56796 12.753 9.98218 12.753H12.2322V15.0029C12.2322 15.4171 12.568 15.7529 12.9822 15.7529C13.3964 15.7529 13.7322 15.4171 13.7322 15.0029L13.7322 12.753H15.9822C16.3964 12.753 16.7322 12.4172 16.7322 12.003C16.7322 11.5887 16.3964 11.253 15.9822 11.253H13.7322V9.00293Z" fill="#1C274C"/>
<defs>
<clipPath id="clip0_2_4">
<rect x="-324" y="-357" width="1067.22" height="720.632" rx="40" transform="rotate(-0.301821 -324 -357)" fill="white"/>
</clipPath>
</defs>
</svg>
