<svg width="19" height="19" viewBox="0 0 19 19" fill="none" xmlns="http://www.w3.org/2000/svg">
<path fill-rule="evenodd" clip-rule="evenodd" d="M7.13471 17.7426L15.8611 6.33402C16.3354 5.71878 16.5015 5.00949 16.3385 4.28903C16.1971 3.63403 15.7906 3.01268 15.1832 2.54289L13.7021 1.37895C12.4127 0.364505 10.8215 0.480386 9.91514 1.6569L8.93502 2.94237C8.80853 3.10321 8.84161 3.33953 9.00146 3.46769C9.00146 3.46769 11.5057 5.45398 11.559 5.49669C11.7296 5.65704 11.8581 5.87136 11.8913 6.12919C11.947 6.63414 11.5993 7.10896 11.0797 7.1762C10.8358 7.20973 10.6019 7.13572 10.4314 6.99687L7.7994 4.92526C7.67156 4.83025 7.48066 4.85169 7.37522 4.98124L1.18879 13.0762C0.788213 13.5836 0.653719 14.24 0.795008 14.8735L1.60904 18.32C1.65245 18.5025 1.8123 18.6306 2.00331 18.6296L5.50485 18.5682C6.14148 18.5541 6.73419 18.2607 7.13471 17.7426ZM12.0323 16.6421L17.7423 16.6121C18.2994 16.6091 18.7549 17.0658 18.7579 17.6301C18.7609 18.1955 18.3102 18.6559 17.7531 18.6588L12.0431 18.6889C11.486 18.6918 11.0304 18.2363 11.0275 17.6708C11.0245 17.1065 11.4752 16.6451 12.0323 16.6421Z" fill="black"/>
</svg>
