<svg width="22" height="21" viewBox="0 0 22 21" fill="none" xmlns="http://www.w3.org/2000/svg">
<path fill-rule="evenodd" clip-rule="evenodd" d="M6.62623 1.64751C4.04926 1.66108 2.39359 3.43683 2.40795 6.16279L2.45122 14.3767C2.45525 15.1417 2.60085 15.8239 2.84696 16.4136C2.85739 16.401 3.08477 16.121 3.38139 15.7556C3.96111 15.0415 4.80533 14.0016 4.81125 13.9962C5.49908 13.2026 6.79186 12.0178 8.50059 12.7218C8.87502 12.8747 9.20823 13.0852 9.51496 13.2789C9.54483 13.2978 9.57445 13.3165 9.60383 13.335C10.1788 13.715 10.5168 13.8932 10.8666 13.8613C11.0115 13.8406 11.1473 13.7969 11.2759 13.7162C11.7609 13.4136 13.0131 11.6194 13.3881 11.0821C13.4431 11.0033 13.4792 10.9515 13.4912 10.9355C14.5738 9.50975 16.2517 9.12091 17.6561 9.95352C17.8447 10.0645 19.1967 10.9984 19.6446 11.3741L19.6167 6.07214C19.6024 3.34618 17.9281 1.58797 15.3421 1.60159L6.62623 1.64751ZM15.3348 0.206613C18.7117 0.188824 20.9931 2.53884 21.0117 6.06479L21.055 14.2787C21.0554 14.3674 21.0466 14.4506 21.0377 14.5337C21.0315 14.5922 21.0252 14.6506 21.0222 14.7109C21.0203 14.7473 21.0194 14.7837 21.0186 14.8202C21.0175 14.8687 21.0163 14.9173 21.0126 14.9659C21.0107 14.9849 21.007 15.0032 21.0034 15.0215C20.9997 15.0397 20.9961 15.058 20.9942 15.077C20.9628 15.3912 20.9134 15.6914 20.8439 15.9828C20.8275 16.0556 20.8085 16.1258 20.7893 16.1967L20.7851 16.2121C20.7066 16.4945 20.6141 16.764 20.5024 17.0216C20.4828 17.0649 20.4622 17.1072 20.4415 17.1494C20.4277 17.1776 20.414 17.2057 20.4005 17.2342C20.2798 17.4798 20.1491 17.7155 19.9972 17.9343C19.9691 17.9748 19.9392 18.0128 19.9092 18.0508C19.8894 18.076 19.8696 18.1011 19.8502 18.1271C19.6923 18.3339 19.5273 18.5318 19.3403 18.7118C19.3029 18.7477 19.2625 18.7805 19.2222 18.8134C19.1969 18.834 19.1717 18.8545 19.1472 18.8758C18.955 19.0428 18.7589 19.2028 18.5426 19.34C18.4954 19.37 18.4452 19.3952 18.3952 19.4203C18.3629 19.4366 18.3306 19.4528 18.2993 19.4703C18.0789 19.5934 17.8566 19.7136 17.614 19.8069C17.5557 19.8294 17.4936 19.8458 17.4313 19.8622C17.387 19.8739 17.3427 19.8856 17.2995 19.8995C17.2779 19.9064 17.2563 19.9132 17.2348 19.92C17.0181 19.9887 16.8021 20.0571 16.5686 20.0984C16.4333 20.1228 16.2896 20.1327 16.1459 20.1426C16.0837 20.1469 16.0214 20.1511 15.9599 20.1566C15.8936 20.1619 15.8288 20.1702 15.7638 20.1786C15.6581 20.1921 15.5522 20.2057 15.4401 20.2063L6.72423 20.2522C6.34824 20.2542 5.98904 20.2181 5.64175 20.163C5.62874 20.161 5.61673 20.1591 5.60472 20.1571C4.25051 19.9313 3.12408 19.2842 2.33191 18.3034C2.32644 18.3034 2.32427 18.2997 2.32139 18.2948C2.31952 18.2916 2.31736 18.288 2.31381 18.2845C1.51757 17.2926 1.06352 15.956 1.05524 14.384L1.01197 6.17014C0.993399 2.64419 3.25193 0.270264 6.61888 0.252527L15.3348 0.206613ZM10.0157 6.74928C10.0229 8.10421 8.89513 9.24026 7.53372 9.24743C6.33703 9.25374 5.31209 8.38477 5.07745 7.25397C5.03876 7.08432 5.01652 6.90976 5.01557 6.7293C5.00839 5.36472 6.11108 4.25486 7.48122 4.24764C8.17888 4.24396 8.8122 4.53401 9.26718 4.99968C9.72401 5.44893 10.0122 6.06989 10.0157 6.74928Z" fill="black"/>
</svg>
