<svg width="22" height="21" viewBox="0 0 22 21" fill="none" xmlns="http://www.w3.org/2000/svg">
<path fill-rule="evenodd" clip-rule="evenodd" d="M1.00632 11.0115C0.977246 5.49205 5.44197 0.982216 10.9535 0.953182C16.465 0.924148 20.977 5.38669 21.006 10.9062C21.0351 16.414 16.5703 20.9239 11.0588 20.9529C5.54732 20.9819 1.03534 16.5194 1.00632 11.0115ZM14.6794 11.9516C14.785 11.8449 14.9193 11.6801 14.9481 11.6414C15.1014 11.438 15.1773 11.1867 15.176 10.9369C15.1745 10.6561 15.0863 10.3961 14.9211 10.1847C14.9076 10.1713 14.8811 10.1428 14.8466 10.1056C14.782 10.0361 14.6893 9.93627 14.6008 9.84871C13.8048 9.00388 11.7319 7.62549 10.6486 7.20668C10.4841 7.14098 10.0683 6.99748 9.84626 6.98901C9.63391 6.99012 9.43146 7.03943 9.23892 7.13693C8.99832 7.27326 8.80639 7.48653 8.70154 7.73793C8.63489 7.91195 8.53146 8.43348 8.53151 8.44313C8.42833 9.0129 8.37529 9.93939 8.38068 10.962C8.38582 11.9374 8.4484 12.8238 8.53832 13.4022C8.54073 13.4045 8.54925 13.4459 8.56248 13.5101C8.60273 13.7055 8.68657 14.1124 8.77461 14.2789C8.98909 14.683 9.40547 14.9316 9.84947 14.9293L9.88808 14.9291C10.1776 14.9179 10.7844 14.6639 10.7843 14.6542C11.8052 14.2243 13.8156 12.892 14.6218 12.0097L14.6794 11.9516Z" fill="black"/>
</svg>
