<svg width="21" height="20" viewBox="0 0 21 20" fill="none" xmlns="http://www.w3.org/2000/svg">
<path fill-rule="evenodd" clip-rule="evenodd" d="M10.9822 20.0029C16.505 20.0029 20.9822 15.5258 20.9822 10.0029C20.9822 4.48008 16.505 0.00292969 10.9822 0.00292969C5.45933 0.00292969 0.982178 4.48008 0.982178 10.0029C0.982178 15.5258 5.45933 20.0029 10.9822 20.0029ZM11.7322 7.00293C11.7322 6.58872 11.3964 6.25293 10.9822 6.25293C10.568 6.25293 10.2322 6.58872 10.2322 7.00293L10.2322 9.25295H7.98218C7.56796 9.25295 7.23218 9.58874 7.23218 10.003C7.23218 10.4172 7.56796 10.753 7.98218 10.753H10.2322V13.0029C10.2322 13.4171 10.568 13.7529 10.9822 13.7529C11.3964 13.7529 11.7322 13.4171 11.7322 13.0029L11.7322 10.753H13.9822C14.3964 10.753 14.7322 10.4172 14.7322 10.003C14.7322 9.58874 14.3964 9.25295 13.9822 9.25295H11.7322V7.00293Z" fill="#1C274C"/>
</svg>
