<svg width="25" height="25" viewBox="0 0 25 25" fill="none" xmlns="http://www.w3.org/2000/svg">
<path d="M15.9834 8.00732C15.9834 9.94032 14.4164 11.5073 12.4834 11.5073C10.5504 11.5073 8.9834 9.94032 8.9834 8.00732C8.9834 6.07433 10.5504 4.50732 12.4834 4.50732C14.4164 4.50732 15.9834 6.07433 15.9834 8.00732Z" fill="#1C274C"/>
<path d="M18.4834 17.0073C18.4834 18.9403 15.7971 20.5073 12.4834 20.5073C9.16969 20.5073 6.4834 18.9403 6.4834 17.0073C6.4834 15.0743 9.16969 13.5073 12.4834 13.5073C15.7971 13.5073 18.4834 15.0743 18.4834 17.0073Z" fill="#1C274C"/>
<path d="M7.60545 5.50732C7.78291 5.50732 7.95616 5.52474 8.12345 5.55789C7.71589 6.28178 7.4834 7.1174 7.4834 8.00732C7.4834 8.87558 7.70471 9.69214 8.09399 10.4037C7.93585 10.4332 7.77252 10.4486 7.60545 10.4486C6.19103 10.4486 5.04442 9.34245 5.04442 7.97796C5.04442 6.61346 6.19103 5.50732 7.60545 5.50732Z" fill="#1C274C"/>
<path d="M5.93073 19.4933C5.36282 18.8144 4.9834 17.9813 4.9834 17.0073C4.9834 16.0631 5.33997 15.2513 5.87918 14.5841C3.9745 14.7318 2.4834 15.7735 2.4834 17.0367C2.4834 18.3117 4.0007 19.3612 5.93073 19.4933Z" fill="#1C274C"/>
<path d="M17.4833 8.00732C17.4833 8.87558 17.262 9.69214 16.8727 10.4037C17.0309 10.4332 17.1942 10.4486 17.3613 10.4486C18.7757 10.4486 19.9223 9.34245 19.9223 7.97796C19.9223 6.61346 18.7757 5.50732 17.3613 5.50732C17.1838 5.50732 17.0106 5.52474 16.8433 5.55789C17.2508 6.28178 17.4833 7.1174 17.4833 8.00732Z" fill="#1C274C"/>
<path d="M19.036 19.4933C20.966 19.3612 22.4833 18.3117 22.4833 17.0367C22.4833 15.7735 20.9922 14.7318 19.0875 14.5841C19.6267 15.2513 19.9833 16.0631 19.9833 17.0073C19.9833 17.9813 19.6039 18.8144 19.036 19.4933Z" fill="#1C274C"/>
</svg>
