<svg width="21" height="21" viewBox="0 0 21 21" fill="none" xmlns="http://www.w3.org/2000/svg">
<path fill-rule="evenodd" clip-rule="evenodd" d="M0.317644 9.0702C0.29242 4.28199 4.11226 0.380161 8.84949 0.355206C11.1244 0.343222 13.3109 1.24515 14.9281 2.86258C16.5453 4.48001 17.4606 6.68045 17.4727 8.97983C17.4979 13.768 13.6781 17.6699 8.94083 17.6948C4.2036 17.7198 0.342867 13.8584 0.317644 9.0702ZM17.3676 15.9648L19.933 18.0135L19.9774 18.0132C20.497 18.5329 20.5014 19.3799 19.9874 19.905C19.4733 20.4301 18.6353 20.4345 18.1157 19.9149L15.983 17.4963C15.7815 17.2955 15.6674 17.0219 15.6659 16.7359C15.6644 16.4499 15.7756 16.1751 15.9749 15.9722C16.3594 15.5862 16.979 15.583 17.3676 15.9648Z" fill="black"/>
</svg>
