<svg width="25" height="25" viewBox="0 0 25 25" fill="none" xmlns="http://www.w3.org/2000/svg">
<rect width="25" height="25" fill="#F2F2F3"/>
<g clip-path="url(#clip0_2_4)">
<rect x="-228" y="-357" width="1067.22" height="720.632" rx="40" transform="rotate(-0.301821 -228 -357)" fill="white"/>
</g>
<rect x="-19.0793" y="-18.9883" width="63" height="105" rx="4.5" stroke="#7C7C7C" stroke-dasharray="10 5"/>
<path fill-rule="evenodd" clip-rule="evenodd" d="M22.4207 12.5117C22.4207 18.0346 17.9435 22.5117 12.4207 22.5117C6.89781 22.5117 2.42065 18.0346 2.42065 12.5117C2.42065 6.98887 6.89781 2.51172 12.4207 2.51172C17.9435 2.51172 22.4207 6.98887 22.4207 12.5117ZM16.1707 12.5117C16.1707 12.9259 15.8349 13.2617 15.4207 13.2617H9.42065C9.00644 13.2617 8.67065 12.9259 8.67065 12.5117C8.67065 12.0975 9.00644 11.7617 9.42065 11.7617H15.4207C15.8349 11.7617 16.1707 12.0975 16.1707 12.5117Z" fill="#1C274C"/>
<defs>
<clipPath id="clip0_2_4">
<rect x="-228" y="-357" width="1067.22" height="720.632" rx="40" transform="rotate(-0.301821 -228 -357)" fill="white"/>
</clipPath>
</defs>
</svg>
