<svg width="25" height="25" viewBox="0 0 25 25" fill="none" xmlns="http://www.w3.org/2000/svg">
<rect width="25" height="25" fill="#F2F2F3"/>
<g clip-path="url(#clip0_2_4)">
<rect x="-227" y="-223" width="1067.22" height="720.632" rx="40" transform="rotate(-0.301821 -227 -223)" fill="white"/>
</g>
<rect x="-19.3304" y="-16.986" width="63" height="107" rx="4.5" transform="rotate(-0.301821 -19.3304 -16.986)" stroke="#7C7C7C" stroke-dasharray="10 5"/>
<path fill-rule="evenodd" clip-rule="evenodd" d="M2.31764 11.0702C2.29242 6.28199 6.11226 2.38016 10.8495 2.35521C13.1244 2.34322 15.3109 3.24515 16.9281 4.86258C18.5453 6.48001 19.4606 8.68045 19.4727 10.9798C19.4979 15.768 15.6781 19.6699 10.9408 19.6948C6.2036 19.7198 2.34287 15.8584 2.31764 11.0702ZM19.3676 17.9648L21.933 20.0135L21.9774 20.0132C22.497 20.5329 22.5014 21.3799 21.9874 21.905C21.4733 22.4301 20.6353 22.4345 20.1157 21.9149L17.983 19.4963C17.7815 19.2955 17.6674 19.0219 17.6659 18.7359C17.6644 18.4499 17.7756 18.1751 17.9749 17.9722C18.3594 17.5862 18.979 17.583 19.3676 17.9648Z" fill="black"/>
<defs>
<clipPath id="clip0_2_4">
<rect x="-227" y="-223" width="1067.22" height="720.632" rx="40" transform="rotate(-0.301821 -227 -223)" fill="white"/>
</clipPath>
</defs>
</svg>
