<svg width="19" height="21" viewBox="0 0 19 21" fill="none" xmlns="http://www.w3.org/2000/svg">
<path d="M17.7663 1.32538C17.3135 0.827209 16.6463 0.644242 16.026 0.843806L1.56335 5.48389C0.908933 5.68461 0.447332 6.25336 0.325973 6.97343C0.201979 7.70627 0.653452 8.63335 1.23893 9.01894L5.78451 12.0111C6.25072 12.3178 6.84995 12.2371 7.23219 11.815L12.3894 6.13353C12.6489 5.83771 13.0811 5.83544 13.3437 6.1285C13.6063 6.41175 13.6088 6.87303 13.3492 7.16884L8.18305 12.8514C7.7999 13.2725 7.73131 13.9255 8.01759 14.4305L10.8114 19.3722C11.1386 19.9594 11.6986 20.2902 12.3108 20.2869C12.3829 20.2865 12.4639 20.2861 12.5359 20.2759C13.2376 20.1741 13.7931 19.651 13.9963 18.9138L18.2085 3.21731C18.394 2.54893 18.2191 1.82355 17.7663 1.32538Z" fill="black"/>
</svg>
