<svg width="25" height="25" viewBox="0 0 25 25" fill="none" xmlns="http://www.w3.org/2000/svg">
<rect width="25" height="25" fill="#F2F2F3"/>
<g clip-path="url(#clip0_2_4)">
<rect x="-132" y="-487" width="1067.22" height="720.632" rx="40" transform="rotate(-0.301821 -132 -487)" fill="white"/>
</g>
<rect x="-18.9383" y="-16.4841" width="63" height="107" rx="4.5" transform="rotate(-0.301821 -18.9383 -16.4841)" stroke="#7C7C7C" stroke-dasharray="10 5"/>
<path fill-rule="evenodd" clip-rule="evenodd" d="M10.1347 20.7426L18.8611 9.33402C19.3354 8.71878 19.5015 8.00949 19.3385 7.28903C19.1971 6.63403 18.7906 6.01268 18.1832 5.54289L16.7021 4.37895C15.4127 3.3645 13.8215 3.48039 12.9151 4.6569L11.935 5.94237C11.8085 6.10321 11.8416 6.33953 12.0015 6.46769C12.0015 6.46769 14.5057 8.45398 14.559 8.49669C14.7296 8.65704 14.8581 8.87136 14.8913 9.12919C14.947 9.63414 14.5993 10.109 14.0797 10.1762C13.8358 10.2097 13.6019 10.1357 13.4314 9.99687L10.7994 7.92526C10.6716 7.83025 10.4807 7.85169 10.3752 7.98124L4.18879 16.0762C3.78821 16.5836 3.65372 17.24 3.79501 17.8735L4.60904 21.32C4.65245 21.5025 4.8123 21.6306 5.00331 21.6296L8.50485 21.5682C9.14148 21.5541 9.73419 21.2607 10.1347 20.7426ZM15.0323 19.6421L20.7423 19.6121C21.2994 19.6091 21.7549 20.0658 21.7579 20.6301C21.7609 21.1955 21.3102 21.6559 20.7531 21.6588L15.0431 21.6889C14.486 21.6918 14.0304 21.2363 14.0275 20.6708C14.0245 20.1065 14.4752 19.6451 15.0323 19.6421Z" fill="black"/>
<defs>
<clipPath id="clip0_2_4">
<rect x="-132" y="-487" width="1067.22" height="720.632" rx="40" transform="rotate(-0.301821 -132 -487)" fill="white"/>
</clipPath>
</defs>
</svg>
