<svg width="25" height="25" viewBox="0 0 25 25" fill="none" xmlns="http://www.w3.org/2000/svg">
<rect width="25" height="25" fill="#F2F2F3"/>
<g clip-path="url(#clip0_2_4)">
<rect x="-420" y="-357" width="1067.22" height="720.632" rx="40" transform="rotate(-0.301821 -420 -357)" fill="white"/>
</g>
<rect x="-19.5174" y="-20.0002" width="63" height="107" rx="4.5" transform="rotate(-0.301821 -19.5174 -20.0002)" stroke="#7C7C7C" stroke-dasharray="10 5"/>
<path fill-rule="evenodd" clip-rule="evenodd" d="M6.22675 4.83527L12.0187 4.80476C14.4407 4.792 16.1405 6.4521 16.1531 8.84395L16.1893 15.722C16.2019 18.1139 14.5197 19.7918 12.0977 19.8045L6.30577 19.8351C3.88378 19.8478 2.18399 18.1877 2.17139 15.7959L2.13516 8.91779C2.12256 6.52595 3.80476 4.84803 6.22675 4.83527ZM20.084 7.14129C20.5219 6.91563 21.037 6.93626 21.4574 7.19801C21.8777 7.45875 22.1302 7.91428 22.1328 8.41376L22.1732 16.0898C22.1759 16.5903 21.9283 17.0474 21.5106 17.3126C21.2824 17.4569 21.0268 17.5314 20.7688 17.5327C20.5538 17.5339 20.3385 17.4843 20.137 17.3828L18.6521 16.6434C18.1026 16.3681 17.7596 15.8115 17.7564 15.1912L17.7257 9.3578C17.7224 8.73649 18.0594 8.17633 18.606 7.89731L20.084 7.14129Z" fill="black"/>
<defs>
<clipPath id="clip0_2_4">
<rect x="-420" y="-357" width="1067.22" height="720.632" rx="40" transform="rotate(-0.301821 -420 -357)" fill="white"/>
</clipPath>
</defs>
</svg>
