<svg width="21" height="21" viewBox="0 0 21 21" fill="none" xmlns="http://www.w3.org/2000/svg">
<path d="M7.20712 3.90154C8.47377 1.62929 9.10709 0.493164 10.054 0.493164C11.0008 0.493164 11.6341 1.62929 12.9008 3.90154L13.2285 4.4894C13.5884 5.1351 13.7684 5.45795 14.049 5.67097C14.3296 5.88399 14.6791 5.96306 15.3781 6.12121L16.0144 6.26519C18.4741 6.82172 19.7039 7.09998 19.9965 8.04089C20.2891 8.98181 19.4507 9.96223 17.7739 11.9231L17.34 12.4304C16.8635 12.9876 16.6253 13.2662 16.5181 13.6109C16.4109 13.9556 16.4469 14.3273 16.519 15.0707L16.5846 15.7476C16.8381 18.3638 16.9648 19.6719 16.1988 20.2534C15.4328 20.8349 14.2813 20.3047 11.9783 19.2443L11.3825 18.97C10.728 18.6687 10.4008 18.518 10.054 18.518C9.7071 18.518 9.37988 18.6687 8.72544 18.97L8.12963 19.2443C5.82663 20.3047 4.67513 20.8349 3.9091 20.2534C3.14308 19.6719 3.26983 18.3638 3.52335 15.7476L3.58894 15.0707C3.66098 14.3273 3.697 13.9556 3.58982 13.6109C3.48263 13.2662 3.24438 12.9876 2.76787 12.4304L2.33405 11.9231C0.657204 9.96224 -0.18122 8.98181 0.111376 8.04089C0.403973 7.09998 1.63381 6.82172 4.09349 6.26519L4.72984 6.12121C5.42881 5.96307 5.77829 5.88399 6.0589 5.67097C6.33951 5.45795 6.51948 5.1351 6.87942 4.4894L7.20712 3.90154Z" fill="#1C274C"/>
</svg>
