<svg width="25" height="25" viewBox="0 0 25 25" fill="none" xmlns="http://www.w3.org/2000/svg">
<rect width="25" height="25" fill="#F2F2F3"/>
<g clip-path="url(#clip0_2_4)">
<rect x="-884" y="-347" width="1067.22" height="720.632" rx="40" transform="rotate(-0.301821 -884 -347)" fill="white"/>
<rect width="350.654" height="428.023" transform="translate(-229.937 -178.09) rotate(-0.301821)" fill="white"/>
<rect x="-19.446" y="-19.0068" width="62" height="108" rx="4.5" stroke="#7C7C7C" stroke-dasharray="10 5"/>
<path d="M9.20712 5.90154C10.4738 3.62929 11.1071 2.49316 12.054 2.49316C13.0008 2.49316 13.6341 3.62929 14.9008 5.90154L15.2285 6.4894C15.5884 7.1351 15.7684 7.45795 16.049 7.67097C16.3296 7.88399 16.6791 7.96306 17.3781 8.12121L18.0144 8.26519C20.4741 8.82172 21.7039 9.09998 21.9965 10.0409C22.2891 10.9818 21.4507 11.9622 19.7739 13.9231L19.34 14.4304C18.8635 14.9876 18.6253 15.2662 18.5181 15.6109C18.4109 15.9556 18.4469 16.3273 18.519 17.0707L18.5846 17.7476C18.8381 20.3638 18.9648 21.6719 18.1988 22.2534C17.4328 22.8349 16.2813 22.3047 13.9783 21.2443L13.3825 20.97C12.728 20.6687 12.4008 20.518 12.054 20.518C11.7071 20.518 11.3799 20.6687 10.7254 20.97L10.1296 21.2443C7.82663 22.3047 6.67513 22.8349 5.9091 22.2534C5.14308 21.6719 5.26983 20.3638 5.52335 17.7476L5.58894 17.0707C5.66098 16.3273 5.697 15.9556 5.58982 15.6109C5.48263 15.2662 5.24438 14.9876 4.76787 14.4304L4.33405 13.9231C2.6572 11.9622 1.81878 10.9818 2.11138 10.0409C2.40397 9.09998 3.63381 8.82172 6.09349 8.26519L6.72984 8.12121C7.42881 7.96307 7.77829 7.88399 8.0589 7.67097C8.33951 7.45795 8.51948 7.1351 8.87942 6.4894L9.20712 5.90154Z" fill="#1C274C"/>
</g>
<defs>
<clipPath id="clip0_2_4">
<rect x="-884" y="-347" width="1067.22" height="720.632" rx="40" transform="rotate(-0.301821 -884 -347)" fill="white"/>
</clipPath>
</defs>
</svg>
