<svg width="21" height="21" viewBox="0 0 21 21" fill="none" xmlns="http://www.w3.org/2000/svg">
<path fill-rule="evenodd" clip-rule="evenodd" d="M6.35522 0.698159L15.0251 0.652488C18.4151 0.63463 20.6976 3.00264 20.7162 6.54259L20.7592 14.7125C20.7778 18.2424 18.5204 20.6344 15.1305 20.6522L6.46058 20.6979C3.07063 20.7157 0.77812 18.3478 0.759525 14.8178L0.716488 6.64795C0.69784 3.10799 2.96527 0.716017 6.35522 0.698159ZM6.26423 11.8988C5.60423 11.9023 5.0614 11.3651 5.05792 10.7051C5.05444 10.0451 5.5916 9.5033 6.25159 9.49983C6.91158 9.49635 7.45441 10.0325 7.45789 10.6925C7.46136 11.3525 6.92422 11.8953 6.26423 11.8988ZM9.53786 10.6815C9.54133 11.3415 10.0842 11.8787 10.7442 11.8752C11.4042 11.8717 11.9413 11.3289 11.9378 10.6689C11.9343 10.0089 11.3915 9.47275 10.7315 9.47623C10.0715 9.4797 9.53438 10.0215 9.53786 10.6815ZM14.0178 10.6579C14.0213 11.3179 14.5641 11.8551 15.2241 11.8516C15.8841 11.8481 16.4112 11.3053 16.4078 10.6453C16.4043 9.98535 15.8715 9.44915 15.2115 9.45263C14.5515 9.4561 14.0143 9.99794 14.0178 10.6579Z" fill="black"/>
</svg>
