<svg width="23" height="19" viewBox="0 0 23 19" fill="none" xmlns="http://www.w3.org/2000/svg">
<path fill-rule="evenodd" clip-rule="evenodd" d="M13.0497 3.74138C12.9968 3.25531 12.9417 2.751 12.8101 2.24817C12.4524 1.04545 11.4754 0.29907 10.432 0.304566C9.85008 0.305485 9.11586 0.66794 8.70043 1.03301L5.25642 3.94884L3.44552 3.95838C2.11277 3.9654 1.04653 4.99847 0.851966 6.48215C0.687497 7.90663 0.659709 10.594 0.881872 12.1593C1.07572 13.7247 2.10447 14.7317 3.50223 14.7243L5.31314 14.7148L8.85501 17.6367C9.21843 17.9494 9.85892 18.3067 10.4461 18.3036C10.4839 18.3045 10.5174 18.3043 10.551 18.3042C11.6142 18.2986 12.5465 17.5142 12.8915 16.311C13.0211 15.8024 13.065 15.3261 13.1074 14.8658L13.1082 14.8573L13.153 14.3986C13.3255 12.9107 13.2873 5.65867 13.0992 4.18344L13.0497 3.74138ZM17.0993 3.76406C16.8087 3.34044 16.2367 3.23717 15.8198 3.53461C15.4072 3.83417 15.3075 4.42089 15.5981 4.84344C16.4065 6.02123 16.8563 7.59278 16.8651 9.27079C16.874 10.9477 16.4408 12.525 15.6449 13.7113C15.3587 14.1368 15.4646 14.7225 15.8814 15.0177C16.0372 15.1264 16.2189 15.1834 16.4055 15.1824C16.7065 15.1808 16.9867 15.028 17.1573 14.7748C18.1624 13.2771 18.711 11.3192 18.7001 9.26113C18.6893 7.20306 18.1201 5.25101 17.0993 3.76406ZM18.9655 0.480671C19.3813 0.182163 19.9555 0.287573 20.244 0.710131C21.8248 3.01115 22.7048 6.04162 22.7217 9.23983C22.7385 12.4402 21.8905 15.4787 20.334 17.7962C20.1644 18.0494 19.8831 18.2023 19.5822 18.2039C19.3955 18.2049 19.2148 18.1478 19.0591 18.0392C18.6423 17.744 18.5364 17.1594 18.8215 16.7327C20.1678 14.7266 20.9015 12.0687 20.8866 9.2495C20.8718 6.43134 20.1102 3.78138 18.7428 1.78951C18.4532 1.36695 18.5529 0.780236 18.9655 0.480671Z" fill="black"/>
</svg>
