<svg width="20" height="20" viewBox="0 0 20 20" fill="none" xmlns="http://www.w3.org/2000/svg">
<path fill-rule="evenodd" clip-rule="evenodd" d="M18.0893 0.570679C18.4473 0.208897 19.0211 0.203757 19.3967 0.562733C19.7617 0.923882 19.7648 1.51028 19.4046 1.87419L2.34648 19.112C2.17694 19.2834 1.93187 19.3852 1.69262 19.3865C1.45867 19.3877 1.22739 19.2937 1.04017 19.1221C0.674012 18.7461 0.670984 18.1714 1.03007 17.8085L3.84168 14.9675L3.8131 14.9676C2.40408 14.9751 1.37305 13.9855 1.17435 12.4411C0.953432 10.8968 0.981837 8.25037 1.14486 6.84168C1.33724 5.37991 2.41279 4.36972 3.75723 4.36263L5.58758 4.35299L9.06595 1.47667C9.48856 1.11455 10.2384 0.770814 10.8195 0.758226C11.8781 0.752649 12.8559 1.4874 13.2115 2.67107C13.3518 3.16889 13.4084 3.66504 13.4532 4.14219L13.5404 4.81813C13.5547 4.92179 13.568 5.02122 13.5791 5.12701L18.0893 0.570679ZM12.6052 11.0603C12.7474 10.9198 13.0665 10.8176 13.2107 10.8538C13.5997 10.9502 13.6789 11.5077 13.6749 11.9459C13.6636 13.2183 13.6259 14.1034 13.561 14.651L13.5157 15.1022L13.515 15.1105C13.4721 15.5644 13.4277 16.034 13.2957 16.5355C12.9494 17.7208 12.0081 18.4942 10.9336 18.4999C10.8987 18.5 10.8637 18.5002 10.8277 18.4994C10.2339 18.5025 9.58835 18.1502 9.2215 17.842L7.91516 16.8422C7.41885 16.4776 7.56185 15.8904 7.83742 15.5491C8.04321 15.2951 10.5206 12.9968 11.8217 11.7896C12.2629 11.3802 12.5689 11.0964 12.6052 11.0603Z" fill="black"/>
</svg>
