<svg width="19" height="19" viewBox="0 0 19 19" fill="none" xmlns="http://www.w3.org/2000/svg">
<path fill-rule="evenodd" clip-rule="evenodd" d="M12.1653 2.58256C12.2971 3.08539 12.3522 3.5897 12.4052 4.07577L12.4548 4.51784C12.6431 5.99307 12.6813 13.2451 12.5086 14.733L12.4638 15.1917L12.463 15.2002C12.4205 15.6605 12.3766 16.1368 12.2467 16.6454C11.9014 17.8486 10.968 18.633 9.90351 18.6386C9.86991 18.6388 9.83632 18.6389 9.79852 18.6381C9.21063 18.6412 8.56939 18.2838 8.20555 17.9711L4.65954 15.0492L2.84652 15.0587C1.44712 15.0661 0.417174 14.0591 0.223106 12.4937C0.000693283 10.9285 0.0285301 8.24111 0.1932 6.81663C0.388003 5.33294 1.4555 4.29986 2.78981 4.29283L4.60283 4.28328L8.05089 1.36743C8.46681 1.00236 9.20189 0.639901 9.78454 0.638978C10.8291 0.633476 11.8073 1.37985 12.1653 2.58256ZM15.1802 3.86898C15.5975 3.57368 16.1713 3.67587 16.4601 4.09843C17.4821 5.58644 18.0519 7.5385 18.0628 9.59549C18.0736 11.6525 17.5244 13.6104 16.5181 15.1091C16.3473 15.3623 16.0667 15.5152 15.7654 15.5168C15.5775 15.5178 15.3956 15.4607 15.2407 15.352C14.8234 15.0579 14.7174 14.4723 15.0039 14.0456C15.8008 12.8583 16.2344 11.281 16.2256 9.60516C16.2168 7.92822 15.7665 6.35667 14.9572 5.17781C14.6662 4.7542 14.766 4.16748 15.1802 3.86898Z" fill="black"/>
</svg>
